<?xml version="1.0" standalone="no"?>
<!DOCTYPE svg PUBLIC "-//W3C//DTD SVG 1.1//EN" "http://www.w3.org/Graphics/SVG/1.1/DTD/svg11.dtd" >
<svg xmlns="http://www.w3.org/2000/svg">
<metadata>
Created by FontPrep 20130207 at Tue Dec 29 19:00:20 2015
 By WooseokShur
Copyright (c) 1990, 2001, 2002 Adobe Systems Incorporated.  All Rights Reserved. (c) 1981, 2001, 2002 Heidelberger Druckmaschinen AG. All rights reserved.
</metadata>
<defs>
<font id="0f36e451afbb48ba6ebc31554b154772" horiz-adv-x='1024' >
  <font-face 
    font-family="NeuzeitSLTStd-Book"
    font-weight="400"
    font-stretch="normal"
    units-per-em="2048"
    panose-1="0 0 5 0 0 0 0 0 0 0"
    ascent="1540"
    descent="-508"
    x-height="1024"
    cap-height="1540"
    bbox="-371 -459 2048 2003.02"
    underline-thickness="102"
    underline-position="-102"
    unicode-range="U+0020-FB02"
  />
<missing-glyph horiz-adv-x="1024" 
d="M102 1239v-1044l349 522zM164 102h696l-348 523zM573 717l349 -522v1044zM512 809l348 522h-696zM0 0v1434h1024v-1434h-1024z" />
    <glyph glyph-name="fi" unicode="fi" 
d="M911 1298q-51 0 -86 35t-34 86q0 51 34 86q35 35 86 35t86 -35t35 -86t-35 -86t-86 -35zM831 0v1024h160v-1024h-160zM254 0v893h-191v131h191v293q0 115 71 169t168 54t128 -6v-156q-27 6 -97 6q-111 0 -110 -102v-258h207v-131h-207v-893h-160z" />
    <glyph glyph-name="fl" unicode="fl" 
d="M831 0v1540h160v-1540h-160zM254 0v893h-191v131h191v293q0 115 71 169t168 54t128 -6v-156q-27 6 -97 6q-111 0 -110 -102v-258h207v-131h-207v-893h-160z" />
    <glyph glyph-name=".notdef" horiz-adv-x="1024" 
d="M102 1239v-1044l349 522zM164 102h696l-348 523zM573 717l349 -522v1044zM512 809l348 522h-696zM0 0v1434h1024v-1434h-1024z" />
    <glyph glyph-name=".null" horiz-adv-x="0" 
 />
    <glyph glyph-name="nonmarkingreturn" horiz-adv-x="681" 
 />
    <glyph glyph-name="space" unicode=" " horiz-adv-x="569" 
 />
    <glyph glyph-name="exclam" unicode="!" horiz-adv-x="684" 
d="M227 90q0 47 34 81t81 34t81 -34t34 -81t-34 -81t-81 -34t-81 34t-34 81zM262 350v1190h160v-1190h-160z" />
    <glyph glyph-name="quotedbl" unicode="&#x22;" horiz-adv-x="681" 
d="M74 1024v516h159v-516h-159zM449 1024v516h159v-516h-159z" />
    <glyph glyph-name="numbersign" unicode="#" 
d="M45 469v119h238l47 340h-221v119h237l66 469h131l-66 -469h264l66 469h131l-66 -469h222v-119h-238l-47 -340h221v-119h-237l-66 -469h-131l66 469h-265l-65 -469h-131l65 469h-221zM678 588l47 340h-264l-47 -340h264z" />
    <glyph glyph-name="dollar" unicode="$" 
d="M516 887v510q-104 -6 -169 -80q-65 -73 -65 -181t62 -161q61 -53 172 -88zM516 1694h107v-154q144 -8 258 -90q63 -45 104 -131t49 -205h-172q-14 254 -239 283v-541q217 -56 325 -154t109 -275q0 -177 -110 -302t-324 -150v-237h-107v237q-211 13 -316 133t-118 314h172
q4 -74 28 -133t84 -109t150 -61v586q-66 18 -106 31t-104 47q-66 34 -102 74t-65 109t-28 152q0 166 107 287q108 121 298 135v154zM885 399q0 214 -262 277v-557q127 10 195 83t67 197z" />
    <glyph glyph-name="percent" unicode="%" horiz-adv-x="2048" 
d="M485 -70l949 1655h129l-949 -1655h-129zM1155 354q0 184 100 282q101 98 231 97q130 0 229 -97q99 -98 99 -282t-98 -281q-100 -97 -230 -97t-230 96q-100 98 -101 282zM1655 354q0 117 -41 189q-41 71 -129 71t-129 -72t-41 -188t41 -188t129 -72t129 72t41 188z
M233 1161q1 183 101 281t230 98t230 -97t99 -281q0 -184 -99 -282q-100 -98 -230 -98t-230 98t-101 281zM733 1161q0 117 -41 189t-129 72t-129 -72t-41 -189t41 -189t129 -71q88 -1 129 71t41 189z" />
    <glyph glyph-name="ampersand" unicode="&#x26;" horiz-adv-x="1478" 
d="M858 1196q0 76 -39 122t-103 46t-108 -43t-45 -122q0 -79 54 -164q19 -30 65 -91q176 115 176 252zM346 406q0 -114 76 -202q76 -89 215 -89q203 -1 328 153l-344 488q-139 -74 -207 -155t-68 -195zM174 403q0 106 26 160q26 53 44 83t50 59t59 54q32 31 192 111
q-49 72 -74 112q-68 109 -68 220t80 202q79 91 229 91t228 -82t78 -203q0 -184 -166 -309l-94 -72l297 -413q66 127 84 260h159q-14 -94 -54 -200t-93 -177l215 -299h-203l-116 166q-68 -82 -179 -138t-252 -57q-202 0 -322 122t-120 310z" />
    <glyph glyph-name="quotesingle" unicode="'" horiz-adv-x="569" 
d="M205 1024v516h160v-516h-160z" />
    <glyph glyph-name="parenleft" unicode="(" horiz-adv-x="684" 
d="M303 604q1 -291 109 -524t247 -383l-122 -105q-393 459 -394 1012q0 553 394 1012l122 -105q-139 -150 -247 -383t-109 -524z" />
    <glyph glyph-name="parenright" unicode=")" horiz-adv-x="684" 
d="M381 604q0 291 -109 524t-247 383l122 105q393 -459 393 -1012t-393 -1012l-122 105q139 150 247 383q109 233 109 524z" />
    <glyph glyph-name="asterisk" unicode="*" 
d="M516 1540h107v-301l278 102l37 -102l-291 -96l189 -244l-91 -65l-176 251l-176 -251l-90 65l189 244l-291 96l32 102l283 -102v301z" />
    <glyph glyph-name="plus" unicode="+" horiz-adv-x="1228" 
d="M555 0v459h-459v119h459v458h119v-458h459v-119h-459v-459h-119z" />
    <glyph glyph-name="comma" unicode="," horiz-adv-x="569" 
d="M29 -287l202 529l162 -78l-258 -496z" />
    <glyph glyph-name="hyphen" unicode="-" horiz-adv-x="684" 
d="M90 459v155h504v-155h-504z" />
    <glyph glyph-name="period" unicode="." horiz-adv-x="569" 
d="M170 90q0 47 34 81t81 34t81 -34t34 -81t-34 -81t-81 -34t-81 34t-34 81z" />
    <glyph glyph-name="slash" unicode="/" horiz-adv-x="796" 
d="M33 -29l600 1598h131l-600 -1598h-131z" />
    <glyph glyph-name="zero" unicode="0" 
d="M569 1397q-149 0 -235 -155q-86 -154 -86 -484t86 -485t236 -155t235 156q86 154 86 484t-86 484t-236 155zM569 -25q-143 0 -244 67q-101 68 -153 186q-97 220 -97 531q1 312 96 529q51 119 153 186q102 66 245 66t245 -66q249 -165 249 -716q0 -309 -95 -531
q-52 -119 -154 -185t-245 -67z" />
    <glyph glyph-name="one" unicode="1" 
d="M567 0v1278q-127 -98 -301 -170v158q96 37 215 124t176 150h82v-1540h-172z" />
    <glyph glyph-name="two" unicode="2" 
d="M98 0v145l496 547q118 130 186 234t68 208t-76 177t-212 73t-207 -90t-79 -239h-159q2 131 42 228q71 173 247 231q77 26 163 26q213 0 333 -116t120 -296q0 -120 -59 -232t-193 -255l-451 -485h705v-156h-924z" />
    <glyph glyph-name="three" unicode="3" 
d="M145 1360v156h832v-156l-430 -440l4 -5q35 6 70 7q171 0 291 -116t120 -326t-130 -357t-364 -147t-344 121q-74 83 -91 164t-23 118l160 12q16 -135 83 -204t214 -69t235 97q88 96 88 246q0 149 -93 239t-221 90t-216 -67l-13 8v146l467 483h-639z" />
    <glyph glyph-name="four" unicode="4" 
d="M731 559v739h-4l-485 -739h489zM731 0v416h-659v137l665 987h154v-981h176v-143h-176v-416h-160z" />
    <glyph glyph-name="five" unicode="5" 
d="M971 1516v-156h-672l-25 -500h5q92 131 307 131q173 0 305 -109q69 -56 109 -156t40 -213q0 -209 -110 -363q-54 -78 -150 -126t-217 -49q-434 0 -465 406l172 14q6 -123 82 -199t205 -77q129 0 220 94t91 261t-87 264t-224 98q-197 0 -274 -156h-162l37 836h813z" />
    <glyph glyph-name="six" unicode="6" 
d="M606 1397q-98 1 -169 -53q-171 -129 -185 -596l4 -5q43 87 129 149t217 62q211 0 334 -134t123 -343t-132 -355t-349 -147q-288 0 -400 223q-100 204 -98 527q0 391 137 603t383 212q104 0 185 -34t123 -78t77 -114t39 -147l-168 -12q-53 242 -250 242zM578 119
q146 1 227 101q82 100 82 250t-82 239q-81 90 -221 90t-226 -92t-86 -244t80 -248t226 -96z" />
    <glyph glyph-name="seven" unicode="7" 
d="M102 1360v156h922v-170q-206 -318 -356 -676t-193 -670h-188q25 227 199 656q175 429 378 704h-762z" />
    <glyph glyph-name="eight" unicode="8" 
d="M569 119q143 1 227 85t83 226q0 142 -84 229q-83 89 -225 89t-226 -88t-84 -230t83 -226t226 -85zM569 -25q-219 0 -350 128t-131 315q0 328 295 411v5q-111 30 -169 114t-58 199q0 165 116 279t297 114q180 0 297 -114t117 -279q0 -115 -58 -199t-169 -114v-5
q295 -84 295 -411q0 -186 -131 -315q-132 -128 -351 -128zM811 1145q0 111 -68 181t-174 71q-106 0 -174 -71q-67 -72 -67 -182t66 -182t176 -71q110 -1 176 71t65 183z" />
    <glyph glyph-name="nine" unicode="9" 
d="M80 1038q0 210 132 356t349 146q289 0 400 -222q98 -200 98 -559t-137 -571t-383 -213q-103 0 -185 34t-124 78t-76 114t-39 147l168 12q53 -242 249 -241q98 0 169 53q169 126 186 596l-4 4q-43 -86 -129 -148t-217 -63q-211 0 -334 134t-123 343zM555 717q139 1 225 93
t86 244t-80 246q-80 96 -226 96t-226 -100q-82 -100 -82 -250t82 -239q82 -90 221 -90z" />
    <glyph glyph-name="colon" unicode=":" horiz-adv-x="569" 
d="M170 90q0 47 34 81t81 34t81 -34t34 -81t-34 -81t-81 -34t-81 34t-34 81zM170 877q0 47 34 81t81 33q47 0 81 -34q34 -35 34 -81t-34 -80t-81 -34t-81 34t-34 81z" />
    <glyph glyph-name="semicolon" unicode=";" horiz-adv-x="569" 
d="M170 877q0 47 34 81t81 33q47 0 81 -34q34 -35 34 -81t-34 -80t-81 -34t-81 34t-34 81zM29 -287l202 529l162 -78l-258 -496z" />
    <glyph glyph-name="less" unicode="&#x3c;" horiz-adv-x="1228" 
d="M96 459v119l1037 475v-127l-891 -408l891 -407v-127z" />
    <glyph glyph-name="equal" unicode="=" horiz-adv-x="1228" 
d="M96 256v119h1037v-119h-1037zM96 662v118h1037v-118h-1037z" />
    <glyph glyph-name="greater" unicode="&#x3e;" horiz-adv-x="1228" 
d="M96 111l891 407l-891 408v127l1037 -475v-119l-1037 -475v127z" />
    <glyph glyph-name="question" unicode="?" 
d="M381 90q0 47 34 81t81 34t81 -34q33 -34 33 -81t-34 -81t-80 -34q-47 0 -81 34t-34 81zM416 350v105q0 139 37 232t149 179t156 154q45 68 45 171q-1 103 -63 169t-178 66t-177 -78q-61 -76 -61 -209h-160q0 151 76 276q41 70 127 112t206 42q174 -1 288 -99t114 -286
q-1 -133 -59 -216t-199 -195t-142 -290v-133h-159z" />
    <glyph glyph-name="at" unicode="@" horiz-adv-x="1638" 
d="M1034 444q0 -34 99 -34q137 0 251 122t115 347q0 272 -189 428q-190 155 -488 155t-490 -205t-193 -499q0 -294 196 -487q196 -194 490 -193q182 0 337 75t249 205h131q-98 -180 -294 -283t-421 -103q-468 -1 -693 365q-114 185 -114 433q0 332 234 565t574 233
q338 0 564 -200q226 -201 226 -496q0 -240 -164 -410t-362 -171q-164 0 -177 145h-4q-129 -145 -271 -145t-221 94q-79 93 -79 239t62 286t184 234t278 93q156 0 226 -178h4l41 139h133l-199 -616q-35 -104 -35 -138zM1024 905q0 109 -50 161t-126 52q-162 0 -270 -160
t-107 -325q0 -109 54 -166t147 -57q141 0 247 160q105 161 105 335z" />
    <glyph glyph-name="A" unicode="A" horiz-adv-x="1368" 
d="M16 0l580 1540h176l580 -1540h-195l-153 434h-639l-154 -434h-195zM946 590l-260 733h-4l-260 -733h524z" />
    <glyph glyph-name="B" unicode="B" horiz-adv-x="1251" 
d="M346 856h256q141 0 221 73t80 212t-76 197t-219 59h-262v-541zM346 156h322q143 0 224 81t81 195t-85 197q-85 84 -259 84h-283v-557zM174 0v1540h496q194 0 306 -105t111 -255q0 -328 -249 -377v-4q133 -11 220 -105t87 -271t-129 -300t-332 -123h-510z" />
    <glyph glyph-name="C" unicode="C" horiz-adv-x="1705" 
d="M911 1413q-155 0 -273 -56q-118 -55 -186 -149q-138 -189 -139 -438q0 -248 130 -435q67 -95 187 -151t281 -57q412 0 521 426l174 -21q-55 -220 -204 -377q-81 -85 -211 -135t-298 -49q-340 0 -552 217q-212 216 -212 572t223 582t559 227q175 0 307 -49t206 -131
q135 -151 171 -336l-174 -13q-106 373 -510 373z" />
    <glyph glyph-name="D" unicode="D" horiz-adv-x="1593" 
d="M362 1384v-1228h338q188 0 324 92q256 174 256 532q0 245 -138 417q-71 87 -195 137t-290 50h-295zM190 1540h478q176 0 316 -45q254 -82 368 -282t112 -435q0 -304 -180 -533q-88 -113 -230 -179t-321 -66h-543v1540z" />
    <glyph glyph-name="E" unicode="E" 
d="M174 0v1540h868v-156h-696v-516h676v-155h-676v-557h696v-156h-868z" />
    <glyph glyph-name="F" unicode="F" 
d="M174 0v1540h868v-156h-696v-516h676v-155h-676v-713h-172z" />
    <glyph glyph-name="G" unicode="G" horiz-adv-x="1705" 
d="M872 672v155h705q-4 -344 -165 -590q-81 -124 -223 -195t-331 -71q-342 0 -536 219t-193 580q0 317 190 552q92 114 242 180t334 67q258 -1 435 -141t206 -332l-170 -17q-43 141 -161 237t-339 97q-262 0 -407 -182t-145 -469t152 -461q153 -174 394 -174q138 0 244 51
t164 136q109 162 125 358h-521z" />
    <glyph glyph-name="H" unicode="H" horiz-adv-x="1478" 
d="M174 0v1540h172v-672h787v672h172v-1540h-172v713h-787v-713h-172z" />
    <glyph glyph-name="I" unicode="I" horiz-adv-x="569" 
d="M199 0v1540h172v-1540h-172z" />
    <glyph glyph-name="J" unicode="J" horiz-adv-x="909" 
d="M221 127q182 0 262 94t80 279v884h-520v156h692v-1077q0 -225 -121 -359t-389 -133q-120 1 -192 19v153q63 -16 188 -16z" />
    <glyph glyph-name="K" unicode="K" horiz-adv-x="1251" 
d="M174 0v1540h172v-727h4l643 727h232l-684 -737l694 -803h-238l-647 780h-4v-780h-172z" />
    <glyph glyph-name="L" unicode="L" 
d="M174 0v1540h172v-1384h721v-156h-893z" />
    <glyph glyph-name="M" unicode="M" horiz-adv-x="1933" 
d="M182 0v1540h203l582 -1298l581 1298h203v-1540h-172v1229h-4l-553 -1229h-111l-553 1219h-4v-1219h-172z" />
    <glyph glyph-name="N" unicode="N" horiz-adv-x="1593" 
d="M182 0v1540h187l866 -1270h4v1270h172v-1540h-186l-867 1270h-4v-1270h-172z" />
    <glyph glyph-name="O" unicode="O" horiz-adv-x="1822" 
d="M129 760q0 356 223 582t563 226q339 0 559 -216t220 -572t-224 -582t-563 -226q-340 0 -559 216t-219 572zM1509 790q-1 100 -35 212q-78 252 -290 355q-119 56 -273 56q-155 0 -273 -56q-118 -55 -186 -149q-138 -189 -139 -438q0 -173 87 -336q100 -188 283 -264
q103 -43 228 -43t229 43q183 76 282 264q87 162 87 356z" />
    <glyph glyph-name="P" unicode="P" horiz-adv-x="1251" 
d="M174 0v1540h490q236 0 370 -126t133 -349q0 -223 -145 -347t-383 -124h-293v-594h-172zM346 750h266q162 0 267 76q104 77 104 240t-96 241t-260 77h-281v-634z" />
    <glyph glyph-name="Q" unicode="Q" horiz-adv-x="1822" 
d="M911 1413q-155 0 -273 -56q-118 -55 -186 -149q-138 -189 -139 -438q0 -173 87 -336q100 -188 283 -264q103 -43 228 -43q220 0 367 127l-166 166l102 102l162 -162q133 182 133 422t-138 425q-69 93 -187 149t-273 57zM911 -29q-344 0 -563 217q-219 216 -219 572
t223 582t563 226q339 0 559 -216q220 -217 220 -582q0 -317 -191 -537l201 -200l-102 -103l-205 205q-209 -164 -486 -164z" />
    <glyph glyph-name="R" unicode="R" horiz-adv-x="1251" 
d="M346 659v-659h-172v1540h477q147 0 255 -37t164 -99q108 -120 108 -297t-102 -287t-249 -144l410 -676h-211l-379 659h-301zM346 815h307q156 0 248 73t92 208q0 289 -350 288h-297v-569z" />
    <glyph glyph-name="S" unicode="S" horiz-adv-x="1366" 
d="M684 1413q-170 0 -258 -83t-88 -204q0 -88 74 -151t270 -103q305 -59 433 -152t128 -286t-141 -328q-140 -135 -410 -135t-413 120t-156 335h174q45 -299 391 -299q184 0 278 87q93 87 93 207t-78 175t-289 100q-282 56 -404 150t-122 282t143 314t375 127
q467 0 526 -430h-176q-8 109 -94 191t-256 83z" />
    <glyph glyph-name="T" unicode="T" 
d="M483 0v1384h-467v156h1106v-156h-467v-1384h-172z" />
    <glyph glyph-name="U" unicode="U" horiz-adv-x="1478" 
d="M174 510v1030h172v-1003q0 -205 106 -307t283 -103q178 0 288 111t110 333v969h172v-971q0 -291 -159 -445t-420 -153q-260 1 -406 147t-146 392z" />
    <glyph glyph-name="V" unicode="V" horiz-adv-x="1253" 
d="M551 0l-531 1540h195l414 -1300h4l414 1300h186l-522 -1540h-160z" />
    <glyph glyph-name="W" unicode="W" horiz-adv-x="1933" 
d="M1339 0l-370 1286h-4l-371 -1286h-156l-407 1540h182l303 -1274h4l367 1274h160l366 -1284h4l303 1284h183l-408 -1540h-156z" />
    <glyph glyph-name="X" unicode="X" horiz-adv-x="1253" 
d="M1010 0l-387 651l-392 -651h-211l504 782l-485 758h219l377 -633l377 633h211l-488 -758l498 -782h-223z" />
    <glyph glyph-name="Y" unicode="Y" horiz-adv-x="1253" 
d="M545 0v629l-531 911h211l406 -758l397 758h211l-522 -911v-629h-172z" />
    <glyph glyph-name="Z" unicode="Z" horiz-adv-x="1251" 
d="M43 0v143l946 1241h-872v156h1091v-143l-946 -1241h924v-156h-1143z" />
    <glyph glyph-name="bracketleft" unicode="[" horiz-adv-x="684" 
d="M213 -393v1995h389v-132h-229v-1732h229v-131h-389z" />
    <glyph glyph-name="backslash" unicode="\" horiz-adv-x="796" 
d="M633 -29l-600 1598h131l600 -1598h-131z" />
    <glyph glyph-name="bracketright" unicode="]" horiz-adv-x="684" 
d="M82 -393v131h229v1732h-229v132h389v-1995h-389z" />
    <glyph glyph-name="asciicircum" unicode="^" horiz-adv-x="1228" 
d="M227 608h-131l459 908h119l459 -908h-132l-387 770z" />
    <glyph glyph-name="underscore" unicode="_" horiz-adv-x="1024" 
d="M1024 -256h-1024v102h1024v-102z" />
    <glyph glyph-name="grave" unicode="`" horiz-adv-x="454" 
d="M285 1225l-267 291h222l180 -291h-135z" />
    <glyph glyph-name="a" unicode="a" 
d="M817 358v127l-270 -12q-277 -12 -277 -179q0 -87 64 -139q64 -53 176 -53q113 0 210 66t97 190zM817 0v135h-4q-49 -88 -144 -126t-200 -38q-174 0 -272 88q-99 88 -99 226q0 139 89 217t306 89t324 15v78q0 238 -260 238q-133 0 -193 -50t-77 -145h-158q47 326 430 326
q205 0 311 -89t107 -255v-508q0 -68 14 -201h-174z" />
    <glyph glyph-name="b" unicode="b" horiz-adv-x="1251" 
d="M154 0v1540h159v-694h4q127 195 363 194q175 0 316 -121q71 -59 114 -165t43 -242q0 -238 -140 -390t-354 -151q-151 0 -225 67q-75 67 -117 140h-4v-178h-159zM981 520q0 180 -94 279q-93 98 -235 98t-240 -101q-98 -102 -98 -280t92 -290t248 -112t242 114
q85 112 85 292z" />
    <glyph glyph-name="c" unicode="c" 
d="M1071 698l-164 -16q-54 159 -158 205q-52 23 -120 22q-156 -1 -257 -111q-102 -110 -102 -284t88 -287t263 -112q215 0 286 237l170 -20q-47 -156 -157 -258t-302 -103q-244 0 -382 156q-138 157 -138 393t154 384t369 149q176 0 299 -89q122 -90 151 -266z" />
    <glyph glyph-name="d" unicode="d" horiz-adv-x="1251" 
d="M938 0v178h-4q-88 -149 -208 -187q-60 -19 -134 -20q-213 0 -353 152t-141 389q0 134 43 240t114 166q145 124 316 122q236 0 363 -194h4v694h160v-1540h-160zM938 516q0 178 -98 280t-240 101q-142 0 -235 -98q-95 -99 -95 -279t85 -293t242 -113t249 112t92 290z" />
    <glyph glyph-name="e" unicode="e" 
d="M587 909q-139 0 -221 -92t-92 -211h631q-16 143 -97 223t-221 80zM98 473q0 260 133 420t357 160q224 -1 356 -139q133 -138 133 -394v-45h-807q0 -170 91 -265t227 -95q217 -1 299 198l164 -24q-143 -317 -471 -318q-214 -1 -348 143t-134 359z" />
    <glyph glyph-name="f" unicode="f" horiz-adv-x="684" 
d="M254 0v893h-191v131h191v293q0 115 71 169t168 54t128 -6v-156q-27 6 -97 6q-111 0 -110 -102v-258h207v-131h-207v-893h-160z" />
    <glyph glyph-name="g" unicode="g" horiz-adv-x="1251" 
d="M938 520q0 172 -87 282q-87 108 -241 108t-246 -97q-94 -96 -94 -276q0 -181 80 -287t230 -106t254 102t104 274zM938 850v174h160v-926q0 -528 -531 -528q-188 0 -305 89t-129 247l172 8q35 -201 266 -201q205 0 286 115t81 313v84h-4q-54 -117 -152 -171t-213 -54
q-219 0 -345 147t-126 379t142 378q142 148 348 149q104 1 195 -53t151 -150h4z" />
    <glyph glyph-name="h" unicode="h" 
d="M825 0v618q0 147 -63 213t-172 66t-193 -87t-84 -241v-569h-159v1540h159v-690h4q100 190 326 190q113 0 216 -66q56 -36 91 -110t35 -176v-688h-160z" />
    <glyph glyph-name="i" unicode="i" horiz-adv-x="454" 
d="M106 1419q0 51 35 86t86 35t86 -35t35 -86t-35 -86t-86 -35t-86 35t-35 86zM147 0v1024h160v-1024h-160z" />
    <glyph glyph-name="j" unicode="j" horiz-adv-x="454" 
d="M106 1419q0 51 35 86t86 35t86 -35t35 -86t-35 -86t-86 -35t-86 35t-35 86zM-51 -430v143h51q80 0 114 35t33 129v1147h160v-1157q-1 -157 -69 -227t-238 -70h-51z" />
    <glyph glyph-name="k" unicode="k" horiz-adv-x="1024" 
d="M313 0h-159v1540h159v-969l459 453h219l-495 -467l503 -557h-223l-463 539v-539z" />
    <glyph glyph-name="l" unicode="l" horiz-adv-x="454" 
d="M147 0v1540h160v-1540h-160z" />
    <glyph glyph-name="m" unicode="m" horiz-adv-x="1708" 
d="M1395 0v657q1 129 -51 185t-159 55q-107 0 -179 -78t-72 -201v-618h-160v657q0 127 -50 183t-158 57q-108 0 -180 -78q-73 -78 -73 -201v-618h-159v1024h157v-164h4q51 82 120 131t188 49q213 0 282 -200q49 98 120 149t194 51q167 0 251 -87t84 -253v-700h-159z" />
    <glyph glyph-name="n" unicode="n" 
d="M825 0v618q0 147 -63 213t-172 66t-193 -87t-84 -241v-569h-159v1024h159v-174h4q100 190 326 190q113 0 216 -66q56 -36 91 -110t35 -176v-688h-160z" />
    <glyph glyph-name="o" unicode="o" horiz-adv-x="1253" 
d="M270 512q0 -176 96 -287t261 -111q164 0 260 112q96 110 96 286t-96 287t-260 111q-165 0 -261 -112q-96 -110 -96 -286zM1155 515q0 -222 -141 -383t-394 -161t-388 158q-134 158 -134 380t142 383t394 161q253 0 387 -158t134 -380z" />
    <glyph glyph-name="p" unicode="p" horiz-adv-x="1251" 
d="M154 -430v1454h159v-178h4q127 195 363 194q175 0 316 -121q71 -59 114 -165t43 -242q0 -238 -140 -390t-354 -151q-125 1 -211 57t-131 138h-4v-596h-159zM981 520q0 180 -94 279q-93 98 -235 98t-240 -101q-98 -102 -98 -280t92 -290t248 -112t242 114q85 112 85 292z
" />
    <glyph glyph-name="q" unicode="q" horiz-adv-x="1251" 
d="M938 -430v596h-4q-45 -82 -131 -138t-211 -57q-213 0 -353 152t-141 389q0 134 43 240t114 166q145 124 316 122q236 0 363 -194h4v178h160v-1454h-160zM938 516q0 178 -98 280t-240 101q-142 0 -236 -98q-94 -99 -94 -279t85 -293t242 -113t249 112t92 290z" />
    <glyph glyph-name="r" unicode="r" horiz-adv-x="684" 
d="M154 0v1024h155v-225h4q92 242 295 241h58v-168h-52q-301 0 -301 -385v-487h-159z" />
    <glyph glyph-name="s" unicode="s" horiz-adv-x="1024" 
d="M924 719h-160q-6 82 -66 136t-179 54q-117 0 -185 -43q-68 -44 -68 -116t62 -112t240 -69q180 -29 279 -92t99 -192t-106 -221t-328 -93q-397 0 -434 330h160q6 -78 68 -132t194 -54t211 42q77 42 75 111q-2 68 -62 102t-242 64t-278 96q-98 66 -98 208t116 228t297 87
q181 0 293 -92t112 -242z" />
    <glyph glyph-name="t" unicode="t" horiz-adv-x="684" 
d="M63 893v131h191v299h160v-299h207v-131h-207v-629q0 -70 22 -102t80 -31q57 0 102 6v-143q-86 -6 -178 -6t-139 55t-47 203v647h-191z" />
    <glyph glyph-name="u" unicode="u" 
d="M825 0v162h-4q-100 -190 -325 -191q-137 0 -240 87q-102 87 -102 292v674h159v-631q-1 -147 63 -213t173 -66t193 88q84 87 83 240v582h160v-1024h-160z" />
    <glyph glyph-name="v" unicode="v" horiz-adv-x="1024" 
d="M436 0l-420 1024h181l313 -795h4l322 795h172l-426 -1024h-146z" />
    <glyph glyph-name="w" unicode="w" horiz-adv-x="1593" 
d="M389 0l-356 1024h176l254 -782h4l254 782h151l261 -782h4l254 782h170l-353 -1024h-157l-252 782h-4l-250 -782h-156z" />
    <glyph glyph-name="x" unicode="x" horiz-adv-x="1024" 
d="M16 0l394 528l-369 496h213l270 -410l271 410h200l-377 -496l390 -528h-209l-283 422l-301 -422h-199z" />
    <glyph glyph-name="y" unicode="y" horiz-adv-x="1024" 
d="M236 -430l196 450l-416 1004h183l313 -848h4l315 848h177l-598 -1454h-174z" />
    <glyph glyph-name="z" unicode="z" horiz-adv-x="909" 
d="M57 0v139l596 742h-575v143h774v-139l-596 -742h596v-143h-795z" />
    <glyph glyph-name="braceleft" unicode="{" horiz-adv-x="684" 
d="M143 545v119q72 0 108 62t36 208v455q0 100 57 156t174 57h84v-119h-43q-113 0 -113 -119v-442q0 -248 -155 -316v-4q156 -68 155 -315v-443q0 -119 113 -118h43v-119h-84q-117 0 -174 56t-57 157v454q0 145 -36 208t-108 63z" />
    <glyph glyph-name="bar" unicode="|" horiz-adv-x="454" 
d="M168 -29v1598h119v-1598h-119z" />
    <glyph glyph-name="braceright" unicode="}" horiz-adv-x="684" 
d="M82 -393v119h43q113 0 113 118v443q0 248 155 315v4q-156 68 -155 316v442q0 119 -113 119h-43v119h84q117 0 174 -56t57 -157v-455q0 -146 36 -208t108 -62v-119q-72 -1 -108 -63t-36 -208v-454q0 -100 -57 -156t-174 -57h-84z" />
    <glyph glyph-name="asciitilde" unicode="~" horiz-adv-x="1228" 
d="M397 645q78 1 237 -67t207 -68t88 37t85 106l73 -86q-92 -176 -256 -176q-79 0 -237 68q-158 67 -206 67t-88 -36t-85 -107l-74 86q92 176 256 176z" />
    <glyph glyph-name="uni00A0" unicode="&#xa0;" horiz-adv-x="569" 
 />
    <glyph glyph-name="exclamdown" unicode="&#xa1;" horiz-adv-x="684" 
d="M227 1020q0 47 34 81t81 34t81 -34t34 -81t-34 -81t-81 -34t-81 34t-34 81zM262 -430v1190h160v-1190h-160z" />
    <glyph glyph-name="cent" unicode="&#xa2;" 
d="M535 -252v227q-215 23 -335 175t-120 368t131 362t324 167v141h94v-135q167 -7 281 -97t143 -258l-164 -16q-70 215 -260 227v-790q195 12 260 233l170 -20q-45 -146 -149 -248t-281 -109v-227h-94zM252 512q0 -154 72 -260q72 -108 211 -131v780q-127 -25 -205 -130
t-78 -259z" />
    <glyph glyph-name="sterling" unicode="&#xa3;" 
d="M78 717v106h172q-96 141 -96 310t126 288t312 119q249 0 350 -131q88 -114 94 -264l-172 -12q-8 129 -78 197t-188 67q-118 0 -188 -73q-72 -72 -72 -188t98 -313h432v-106h-391q25 -89 25 -185q0 -175 -207 -364l4 -4q81 31 159 31t197 -32t170 -32q115 0 191 66
l51 -154q-106 -68 -254 -68q-80 0 -207 38t-227 38q-158 0 -242 -80l-65 142q126 55 198 172t72 229t-39 203h-225z" />
    <glyph glyph-name="currency" unicode="&#xa4;" 
d="M946 758q0 160 -112 274t-265 115q-153 0 -265 -115q-112 -114 -112 -274t112 -275t266 -115t265 115t111 275zM61 758q0 180 111 313l-115 115l84 84l115 -115q137 111 315 111t312 -111l114 115l84 -84l-114 -115q111 -137 111 -313t-111 -314l114 -114l-84 -84
l-114 114q-137 -110 -313 -110t-314 110l-115 -114l-84 84l115 114q-111 134 -111 314z" />
    <glyph glyph-name="yen" unicode="&#xa5;" 
d="M489 0v338h-301v119h301v155l-6 11h-295v118h234l-408 775h205l350 -746l351 746h204l-407 -775h233v-118h-295l-6 -11v-155h301v-119h-301v-338h-160z" />
    <glyph glyph-name="brokenbar" unicode="&#xa6;" horiz-adv-x="454" 
d="M168 971v598h119v-598h-119zM168 -29v598h119v-598h-119z" />
    <glyph glyph-name="section" unicode="&#xa7;" 
d="M842 564q0 106 -75 173q-75 66 -204 66t-197 -70t-69 -169q0 -99 69 -171q70 -71 198 -71t203 68t75 174zM573 1425q-119 1 -175 -67t-56 -152t50 -140t124 -78q228 -68 313 -104t135 -113t50 -199t-79 -220t-179 -112v-4q113 -31 170 -113t57 -189q0 -176 -115 -284
t-301 -109q-385 0 -411 359h172q2 -104 68 -160q66 -55 174 -55t174 62q66 63 67 165q0 102 -71 158t-171 81q-100 23 -201 53t-172 116t-71 222q0 138 69 227t187 120v4q-211 61 -211 317q0 150 112 254t292 104t286 -94q106 -96 113 -260h-172q-18 211 -228 211z" />
    <glyph glyph-name="dieresis" unicode="&#xa8;" horiz-adv-x="454" 
d="M-98 1352q0 47 33 81q34 33 81 33t81 -34t34 -80q0 -47 -34 -81t-81 -34t-81 34q-33 34 -33 81zM324 1352q0 47 33 81q34 33 81 33t81 -34t34 -80q0 -47 -34 -81t-81 -34t-81 34q-33 34 -33 81z" />
    <glyph glyph-name="copyright" unicode="&#xa9;" horiz-adv-x="1638" 
d="M1499 770q0 297 -195 495q-196 197 -485 197t-485 -198t-195 -494q0 -297 196 -495q197 -197 485 -197t484 197q195 198 195 495zM20 770q0 330 234 564t565 234q330 0 564 -234q235 -234 235 -564t-234 -564t-565 -234t-565 234t-234 564zM840 1274q160 0 272 -88
t133 -246h-125q-20 98 -95 163t-183 64q-174 0 -268 -107q-93 -108 -93 -287t94 -287t271 -107q110 1 184 67t90 166h125q-33 -154 -141 -246t-258 -94q-219 0 -351 142q-133 142 -133 362q0 218 128 358t350 140z" />
    <glyph glyph-name="ordfeminine" unicode="&#xaa;" horiz-adv-x="739" 
d="M535 1141v78l-201 -9q-141 -4 -141 -108q-1 -55 41 -86t113 -31t129 41t59 115zM653 1358v-316q0 -49 13 -122h-125v81h-4q-57 -98 -232 -98q-96 0 -164 51t-67 136q0 182 248 190l213 8v53q0 145 -159 145t-181 -116h-119q33 199 305 199t272 -211z" />
    <glyph glyph-name="guillemotleft" unicode="&#xab;" 
d="M426 164l-219 377l225 368h143l-229 -368l223 -377h-143zM782 164l-219 377l225 368h144l-230 -368l224 -377h-144z" />
    <glyph glyph-name="logicalnot" unicode="&#xac;" horiz-adv-x="1228" 
d="M1014 221v441h-918v118h1037v-559h-119z" />
    <glyph glyph-name="uni00AD" unicode="&#xad;" horiz-adv-x="684" 
d="M90 459v155h504v-155h-504z" />
    <glyph glyph-name="registered" unicode="&#xae;" horiz-adv-x="1638" 
d="M1499 770q0 297 -195 495q-196 197 -485 197t-485 -198t-195 -494q0 -297 196 -495q197 -197 485 -197t484 197q195 198 195 495zM20 770q0 330 234 564t565 234q330 0 564 -234q235 -234 235 -564t-234 -564t-565 -234t-565 234t-234 564zM627 811h209q129 0 189 33
t60 129t-52 131t-159 35h-247v-328zM627 705v-404h-119v944h371q326 0 325 -266q0 -123 -70 -191t-178 -81l267 -406h-144l-258 404h-194z" />
    <glyph glyph-name="macron" unicode="&#xaf;" horiz-adv-x="454" 
d="M-53 1296v119h561v-119h-561z" />
    <glyph glyph-name="degree" unicode="&#xb0;" horiz-adv-x="819" 
d="M610 1245q0 78 -61 139q-61 62 -139 62t-140 -62t-61 -139q0 -78 61 -139q62 -62 140 -62t139 62t61 139zM115 1245q0 123 86 209t209 86q122 0 208 -86t86 -209t-86 -209t-208 -86t-209 86q-86 86 -86 209z" />
    <glyph glyph-name="plusminus" unicode="&#xb1;" horiz-adv-x="1228" 
d="M96 0v119h1037v-119h-1037zM555 676v360h119v-360h459v-119h-459v-358h-119v358h-459v119h459z" />
    <glyph glyph-name="twosuperior" unicode="&#xb2;" horiz-adv-x="739" 
d="M68 614v119l313 297q160 152 160 258q0 133 -172 133t-176 -174h-119q2 153 91 223t224 70t209 -66t74 -165q0 -170 -168 -326l-271 -250h439v-119h-604z" />
    <glyph glyph-name="threesuperior" unicode="&#xb3;" horiz-adv-x="739" 
d="M94 1434v106h541v-106l-270 -260v-5q33 8 59 9q92 0 170 -71t78 -196t-82 -211t-238 -86t-226 62t-83 178l119 8q14 -141 186 -141q88 0 140 48t52 133t-54 133q-56 48 -143 48t-128 -28l-10 4v102l280 273h-391z" />
    <glyph glyph-name="acute" unicode="&#xb4;" horiz-adv-x="454" 
d="M35 1225l180 291h221l-266 -291h-135z" />
    <glyph glyph-name="mu" unicode="&#xb5;" 
d="M825 0v162h-4q-100 -190 -325 -191q-113 0 -183 82v-483h-159v1454h159v-631q-1 -147 63 -213t173 -66t193 88q84 87 83 240v582h160v-1024h-160z" />
    <glyph glyph-name="paragraph" unicode="&#xb6;" horiz-adv-x="1228" 
d="M897 -430v1864h-205v-1864h-147v1188q-188 0 -308 106t-120 289t121 285t327 102h479v-1970h-147z" />
    <glyph glyph-name="periodcentered" unicode="&#xb7;" horiz-adv-x="569" 
d="M164 670q0 51 35 86t86 35t86 -35t35 -86t-35 -86t-86 -35t-86 35t-35 86z" />
    <glyph glyph-name="cedilla" unicode="&#xb8;" horiz-adv-x="454" 
d="M300 -117q58 0 102 -44t44 -105q0 -96 -74 -145q-75 -48 -158 -48t-206 45l33 88q61 -39 133 -39q113 0 113 80q0 86 -90 86q-47 1 -84 -22l-35 43l129 178h98l-94 -127h4q27 10 85 10z" />
    <glyph glyph-name="onesuperior" unicode="&#xb9;" horiz-adv-x="739" 
d="M348 614v746q-86 -63 -201 -100v114q63 20 141 74t115 92h76v-926h-131z" />
    <glyph glyph-name="ordmasculine" unicode="&#xba;" horiz-adv-x="815" 
d="M408 1475q-102 0 -164 -67t-62 -172t62 -172t164 -67t163 67t61 172t-60 172q-62 67 -164 67zM413 1569q165 0 252 -96q87 -97 87 -235t-92 -236t-258 -99q-164 0 -251 96q-87 97 -87 235t92 236t257 99z" />
    <glyph glyph-name="guillemotright" unicode="&#xbb;" 
d="M563 164l230 368l-224 377h144l219 -377l-225 -368h-144zM207 164l229 368l-223 377h143l219 -377l-225 -368h-143z" />
    <glyph glyph-name="onequarter" unicode="&#xbc;" horiz-adv-x="1708" 
d="M283 614v746q-86 -63 -201 -100v114q63 20 141 74t115 92h76v-926h-131zM272 -25l947 1565h137l-946 -1565h-138zM1386 342v403h-4l-286 -403h290zM1386 0v223h-423v109l428 594h127v-584h108v-119h-108v-223h-132z" />
    <glyph glyph-name="onehalf" unicode="&#xbd;" horiz-adv-x="1708" 
d="M1022 0v119l313 297q160 152 160 258q0 133 -172 133t-176 -174h-119q2 153 91 223t224 70t209 -67t74 -165q0 -170 -168 -325l-270 -250h438v-119h-604zM283 614v746q-86 -63 -201 -100v114q63 20 141 74t115 92h76v-926h-131zM190 -25l947 1565h137l-946 -1565h-138z
" />
    <glyph glyph-name="threequarters" unicode="&#xbe;" horiz-adv-x="1708" 
d="M133 1434v106h541v-106l-271 -260v-5q33 8 60 9q94 0 171 -71t77 -196t-82 -211t-238 -86q-155 0 -225 62t-84 178l119 8q14 -141 186 -141q88 0 140 48q53 48 53 133t-56 133t-142 48q-87 0 -128 -28l-10 4v102l280 273h-391zM375 -25l946 1565h137l-946 -1565h-137z
M1386 0v223h-423v109l428 594h127v-584h108v-119h-108v-223h-132zM1386 342v403h-4l-286 -403h290z" />
    <glyph glyph-name="questiondown" unicode="&#xbf;" 
d="M528 1020q0 47 34 81t81 34t81 -34t34 -81t-34 -81t-81 -34t-81 34t-34 81zM723 760v-105q0 -139 -37 -232q-36 -93 -148 -179t-157 -154t-45 -171t62 -169t178 -66t178 77q61 77 61 210h160q0 -148 -76 -276q-41 -70 -127 -112t-207 -42q-173 1 -287 99t-114 286
q0 133 58 216t200 195t141 290v133h160z" />
    <glyph glyph-name="Agrave" unicode="&#xc0;" horiz-adv-x="1368" 
d="M649 1618l-266 291h221l180 -291h-135zM16 0l580 1540h176l580 -1540h-195l-153 434h-639l-154 -434h-195zM946 590l-260 733h-4l-260 -733h524z" />
    <glyph glyph-name="Aacute" unicode="&#xc1;" horiz-adv-x="1368" 
d="M563 1618l180 291h222l-267 -291h-135zM16 0l580 1540h176l580 -1540h-195l-153 434h-639l-154 -434h-195zM946 590l-260 733h-4l-260 -733h524z" />
    <glyph glyph-name="Acircumflex" unicode="&#xc2;" horiz-adv-x="1368" 
d="M817 1618l-135 190l-135 -190h-162l203 291h188l207 -291h-166zM16 0l580 1540h176l580 -1540h-195l-153 434h-639l-154 -434h-195zM946 590l-260 733h-4l-260 -733h524z" />
    <glyph glyph-name="Atilde" unicode="&#xc3;" horiz-adv-x="1368" 
d="M850 1782q32 0 54 30t24 64h104q-27 -225 -213 -225q-66 0 -167 39t-134 39q-32 0 -54 -30t-24 -65h-104q27 225 213 226q65 0 167 -39t134 -39zM16 0l580 1540h176l580 -1540h-195l-153 434h-639l-154 -434h-195zM946 590l-260 733h-4l-260 -733h524z" />
    <glyph glyph-name="Adieresis" unicode="&#xc4;" horiz-adv-x="1368" 
d="M358 1745q0 47 34 81t81 34t81 -34t34 -81t-34 -81t-81 -34t-81 34t-34 81zM780 1745q0 47 34 81t81 34t81 -34t34 -81t-34 -81t-81 -34t-81 34t-34 81zM16 0l580 1540h176l580 -1540h-195l-153 434h-639l-154 -434h-195zM946 590l-260 733h-4l-260 -733h524z" />
    <glyph glyph-name="Aring" unicode="&#xc5;" horiz-adv-x="1368" 
d="M811 1794q0 53 -37 90t-90 37t-90 -37t-37 -90t37 -90t90 -37t90 37t37 90zM475 1794q-1 86 61 148t148 61q86 0 147 -61q61 -62 61 -148t-60 -147q-62 -61 -148 -61t-148 60q-62 62 -61 148zM16 0l580 1540h176l580 -1540h-195l-153 434h-639l-154 -434h-195zM946 590
l-260 733h-4l-260 -733h524z" />
    <glyph glyph-name="AE" unicode="&#xc6;" horiz-adv-x="1933" 
d="M977 537v897h-4l-486 -897h490zM977 0v381h-574l-206 -381h-199l874 1540h936v-156h-659v-516h639v-155h-639v-557h659v-156h-831z" />
    <glyph glyph-name="Ccedilla" unicode="&#xc7;" horiz-adv-x="1705" 
d="M911 1413q-155 0 -273 -56q-118 -55 -186 -149q-138 -189 -139 -438q0 -248 130 -435q67 -95 187 -151t281 -57q412 0 521 426l176 -21q-56 -214 -190 -363q-74 -83 -194 -135t-272 -61l-73 -100h4q27 10 85 10t102 -44t44 -105q0 -96 -75 -144t-158 -49q-83 0 -205 45
l33 88q61 -39 133 -39q113 0 112 80q0 86 -90 86q-47 0 -84 -22l-35 43l109 151q-324 11 -524 227t-201 566q0 350 223 576t559 227q175 0 307 -49t206 -131q135 -151 171 -336l-174 -13q-106 373 -510 373z" />
    <glyph glyph-name="Egrave" unicode="&#xc8;" 
d="M606 1618l-266 291h221l180 -291h-135zM174 0v1540h868v-156h-696v-516h676v-155h-676v-557h696v-156h-868z" />
    <glyph glyph-name="Eacute" unicode="&#xc9;" 
d="M489 1618l181 291h221l-266 -291h-136zM174 0v1540h868v-156h-696v-516h676v-155h-676v-557h696v-156h-868z" />
    <glyph glyph-name="Ecircumflex" unicode="&#xca;" 
d="M702 1618l-135 190l-135 -190h-162l203 291h189l206 -291h-166zM174 0v1540h868v-156h-696v-516h676v-155h-676v-557h696v-156h-868z" />
    <glyph glyph-name="Edieresis" unicode="&#xcb;" 
d="M244 1745q0 47 34 81t80 34t81 -34q34 -34 34 -81t-34 -81t-81 -34q-46 0 -80 34t-34 81zM666 1745q0 47 33 81q34 34 81 34t81 -34t34 -81t-34 -81t-81 -34t-81 34q-33 34 -33 81zM174 0v1540h868v-156h-696v-516h676v-155h-676v-557h696v-156h-868z" />
    <glyph glyph-name="Igrave" unicode="&#xcc;" horiz-adv-x="569" 
d="M342 1618l-266 291h221l180 -291h-135zM199 0v1540h172v-1540h-172z" />
    <glyph glyph-name="Iacute" unicode="&#xcd;" horiz-adv-x="569" 
d="M143 1618l181 291h221l-266 -291h-136zM199 0v1540h172v-1540h-172z" />
    <glyph glyph-name="Icircumflex" unicode="&#xce;" horiz-adv-x="569" 
d="M418 1618l-135 190l-136 -190h-161l202 291h189l207 -291h-166zM199 0v1540h172v-1540h-172z" />
    <glyph glyph-name="Idieresis" unicode="&#xcf;" horiz-adv-x="569" 
d="M-92 1745q0 47 34 81t81 34t81 -34t33 -81q0 -47 -34 -81q-35 -34 -81 -34t-80 34t-34 81zM330 1745q0 47 34 81t80 34t81 -34q34 -34 34 -81t-34 -81t-81 -34q-46 0 -80 34t-34 81zM199 0v1540h172v-1540h-172z" />
    <glyph glyph-name="Eth" unicode="&#xd0;" horiz-adv-x="1593" 
d="M362 156h338q188 0 324 92q256 174 256 532q0 245 -138 417q-71 87 -195 137t-290 50h-295v-497h476v-144h-476v-587zM190 0v743h-120v144h120v653h478q176 0 316 -45q254 -82 368 -282t112 -435q0 -304 -180 -533q-88 -113 -230 -179t-321 -66h-543z" />
    <glyph glyph-name="Ntilde" unicode="&#xd1;" horiz-adv-x="1593" 
d="M962 1782q32 0 55 30q22 30 23 64h105q-27 -225 -213 -225q-66 0 -168 39t-134 39t-54 -30t-23 -65h-104q27 225 213 226q66 0 167 -39t133 -39zM182 0v1540h187l866 -1270h4v1270h172v-1540h-186l-867 1270h-4v-1270h-172z" />
    <glyph glyph-name="Ograve" unicode="&#xd2;" horiz-adv-x="1822" 
d="M897 1618l-266 291h221l180 -291h-135zM129 760q0 356 223 582t563 226q339 0 559 -216t220 -572t-224 -582t-563 -226q-340 0 -559 216t-219 572zM1509 790q-1 100 -35 212q-78 252 -290 355q-119 56 -273 56q-155 0 -273 -56q-118 -55 -186 -149q-138 -189 -139 -438
q0 -173 87 -336q100 -188 283 -264q103 -43 228 -43t229 43q183 76 282 264q87 162 87 356z" />
    <glyph glyph-name="Oacute" unicode="&#xd3;" horiz-adv-x="1822" 
d="M791 1618l180 291h221l-266 -291h-135zM129 760q0 356 223 582t563 226q339 0 559 -216t220 -572t-224 -582t-563 -226q-340 0 -559 216t-219 572zM1509 790q-1 100 -35 212q-78 252 -290 355q-119 56 -273 56q-155 0 -273 -56q-118 -55 -186 -149q-138 -189 -139 -438
q0 -173 87 -336q100 -188 283 -264q103 -43 228 -43t229 43q183 76 282 264q87 162 87 356z" />
    <glyph glyph-name="Ocircumflex" unicode="&#xd4;" horiz-adv-x="1822" 
d="M1044 1618l-135 190l-135 -190h-162l203 291h189l206 -291h-166zM129 760q0 356 223 582t563 226q339 0 559 -216t220 -572t-224 -582t-563 -226q-340 0 -559 216t-219 572zM1509 790q-1 100 -35 212q-78 252 -290 355q-119 56 -273 56q-155 0 -273 -56
q-118 -55 -186 -149q-138 -189 -139 -438q0 -173 87 -336q100 -188 283 -264q103 -43 228 -43t229 43q183 76 282 264q87 162 87 356z" />
    <glyph glyph-name="Otilde" unicode="&#xd5;" horiz-adv-x="1822" 
d="M1078 1782q32 0 54 30t23 64h105q-27 -225 -213 -225q-65 0 -167 39t-134 39t-54 -30t-24 -65h-105q27 225 213 226q66 0 168 -39t134 -39zM129 760q0 356 223 582t563 226q339 0 559 -216t220 -572t-224 -582t-563 -226q-340 0 -559 216t-219 572zM1509 790
q-1 100 -35 212q-78 252 -290 355q-119 56 -273 56q-155 0 -273 -56q-118 -55 -186 -149q-138 -189 -139 -438q0 -173 87 -336q100 -188 283 -264q103 -43 228 -43t229 43q183 76 282 264q87 162 87 356z" />
    <glyph glyph-name="Odieresis" unicode="&#xd6;" horiz-adv-x="1822" 
d="M586 1745q0 47 34 81t80 34t81 -34q34 -34 34 -81t-34 -81t-81 -34q-46 0 -80 34t-34 81zM1008 1745q0 47 33 81q34 34 81 34t81 -34t34 -81t-34 -81t-81 -34t-81 34q-33 34 -33 81zM129 760q0 356 223 582t563 226q339 0 559 -216t220 -572t-224 -582t-563 -226
q-340 0 -559 216t-219 572zM1509 790q-1 100 -35 212q-78 252 -290 355q-119 56 -273 56q-155 0 -273 -56q-118 -55 -186 -149q-138 -189 -139 -438q0 -173 87 -336q100 -188 283 -264q103 -43 228 -43t229 43q183 76 282 264q87 162 87 356z" />
    <glyph glyph-name="multiply" unicode="&#xd7;" horiz-adv-x="1228" 
d="M530 518l-380 381l83 84l379 -383l383 383l84 -84l-383 -381l383 -381l-84 -84l-383 383l-379 -383l-83 84z" />
    <glyph glyph-name="Oslash" unicode="&#xd8;" horiz-adv-x="1822" 
d="M129 781q0 335 223 561t555 226t541 -192l182 185l68 -70l-182 -184q178 -213 178 -548t-224 -561t-555 -226q-332 0 -540 192l-182 -184l-68 69l184 184q-180 213 -180 548zM911 127q125 0 229 43q183 76 282 264q87 163 87 336q1 246 -118 412l-887 -889
q160 -166 407 -166zM911 1413q-155 0 -273 -56q-118 -55 -186 -149q-138 -189 -139 -426q0 -237 129 -415l885 888q-158 158 -416 158z" />
    <glyph glyph-name="Ugrave" unicode="&#xd9;" horiz-adv-x="1478" 
d="M735 1618l-266 291h221l180 -291h-135zM174 510v1030h172v-1003q0 -205 106 -307t283 -103q178 0 288 111t110 333v969h172v-971q0 -291 -159 -445t-420 -153q-260 1 -406 147t-146 392z" />
    <glyph glyph-name="Uacute" unicode="&#xda;" horiz-adv-x="1478" 
d="M618 1618l181 291h221l-266 -291h-136zM174 510v1030h172v-1003q0 -205 106 -307t283 -103q178 0 288 111t110 333v969h172v-971q0 -291 -159 -445t-420 -153q-260 1 -406 147t-146 392z" />
    <glyph glyph-name="Ucircumflex" unicode="&#xdb;" horiz-adv-x="1478" 
d="M872 1618l-135 190l-135 -190h-162l203 291h188l207 -291h-166zM174 510v1030h172v-1003q0 -205 106 -307t283 -103q178 0 288 111t110 333v969h172v-971q0 -291 -159 -445t-420 -153q-260 1 -406 147t-146 392z" />
    <glyph glyph-name="Udieresis" unicode="&#xdc;" horiz-adv-x="1478" 
d="M414 1745q0 47 33 81q34 34 81 34t81 -34t34 -81t-34 -81t-81 -34t-81 34q-33 34 -33 81zM836 1745q0 47 33 81q34 34 81 34t81 -34t34 -81t-34 -81t-81 -34t-81 34q-33 34 -33 81zM174 510v1030h172v-1003q0 -205 106 -307t283 -103q178 0 288 111t110 333v969h172v-971
q0 -291 -159 -445t-420 -153q-260 1 -406 147t-146 392z" />
    <glyph glyph-name="Yacute" unicode="&#xdd;" horiz-adv-x="1253" 
d="M496 1618l180 291h221l-266 -291h-135zM545 0v629l-531 911h211l406 -758l397 758h211l-522 -911v-629h-172z" />
    <glyph glyph-name="Thorn" unicode="&#xde;" horiz-adv-x="1251" 
d="M346 471h266q162 0 267 77q104 78 104 240t-96 240t-260 78h-281v-635zM174 0v1540h172v-278h318q236 0 370 -126t133 -348q0 -222 -137 -347q-137 -126 -336 -126h-348v-315h-172z" />
    <glyph glyph-name="germandbls" unicode="&#xdf;" 
d="M557 131q111 0 204 90q93 89 93 249t-88 244t-231 83h-56v143h70q109 0 177 64t67 176q1 114 -63 180t-178 66t-177 -75q-61 -75 -62 -206v-1145h-159v1165q0 176 102 290t301 114q151 0 273 -94t122 -271q0 -260 -219 -330v-4q293 -76 293 -399q0 -197 -126 -340
t-325 -143q-59 0 -133 16v143q106 -16 115 -16z" />
    <glyph glyph-name="agrave" unicode="&#xe0;" 
d="M565 1225l-266 291h221l180 -291h-135zM817 358v127l-270 -12q-277 -12 -277 -179q0 -87 64 -139q64 -53 176 -53q113 0 210 66t97 190zM817 0v135h-4q-49 -88 -144 -126t-200 -38q-174 0 -272 88q-99 88 -99 226q0 139 89 217t306 89t324 15v78q0 238 -260 238
q-133 0 -193 -50t-77 -145h-158q47 326 430 326q205 0 311 -89t107 -255v-508q0 -68 14 -201h-174z" />
    <glyph glyph-name="aacute" unicode="&#xe1;" 
d="M438 1225l180 291h222l-267 -291h-135zM817 358v127l-270 -12q-277 -12 -277 -179q0 -87 64 -139q64 -53 176 -53q113 0 210 66t97 190zM817 0v135h-4q-49 -88 -144 -126t-200 -38q-174 0 -272 88q-99 88 -99 226q0 139 89 217t306 89t324 15v78q0 238 -260 238
q-133 0 -193 -50t-77 -145h-158q47 326 430 326q205 0 311 -89t107 -255v-508q0 -68 14 -201h-174z" />
    <glyph glyph-name="acircumflex" unicode="&#xe2;" 
d="M702 1225l-135 190l-135 -190h-162l203 291h189l206 -291h-166zM817 358v127l-270 -12q-277 -12 -277 -179q0 -87 64 -139q64 -53 176 -53q113 0 210 66t97 190zM817 0v135h-4q-49 -88 -144 -126t-200 -38q-174 0 -272 88q-99 88 -99 226q0 139 89 217t306 89t324 15v78
q0 238 -260 238q-133 0 -193 -50t-77 -145h-158q47 326 430 326q205 0 311 -89t107 -255v-508q0 -68 14 -201h-174z" />
    <glyph glyph-name="atilde" unicode="&#xe3;" 
d="M434 1466q66 0 168 -38t134 -39t54 29t23 65h105q-27 -225 -213 -226q-65 0 -167 39t-134 39t-55 -29q-21 -30 -23 -65h-105q27 225 213 225zM817 358v127l-270 -12q-277 -12 -277 -179q0 -87 64 -139q64 -53 176 -53q113 0 210 66t97 190zM817 0v135h-4
q-49 -88 -144 -126t-200 -38q-174 0 -272 88q-99 88 -99 226q0 139 89 217t306 89t324 15v78q0 238 -260 238q-133 0 -193 -50t-77 -145h-158q47 326 430 326q205 0 311 -89t107 -255v-508q0 -68 14 -201h-174z" />
    <glyph glyph-name="adieresis" unicode="&#xe4;" 
d="M244 1352q0 47 34 81q34 33 80 33t81 -34q34 -34 34 -80q0 -47 -34 -81t-81 -34q-46 0 -80 34t-34 81zM666 1352q0 47 33 81q34 33 81 33t81 -34t34 -80q0 -47 -34 -81t-81 -34t-81 34q-33 34 -33 81zM817 358v127l-270 -12q-277 -12 -277 -179q0 -87 64 -139
q64 -53 176 -53q113 0 210 66t97 190zM817 0v135h-4q-49 -88 -144 -126t-200 -38q-174 0 -272 88q-99 88 -99 226q0 139 89 217t306 89t324 15v78q0 238 -260 238q-133 0 -193 -50t-77 -145h-158q47 326 430 326q205 0 311 -89t107 -255v-508q0 -68 14 -201h-174z" />
    <glyph glyph-name="aring" unicode="&#xe5;" 
d="M696 1401q0 53 -37 90t-90 37t-90 -37t-37 -90t37 -90t90 -37t90 37t37 90zM360 1401q0 86 62 147q62 62 147 62t147 -62t62 -147t-61 -147t-147 -62t-148 62t-62 147zM817 358v127l-270 -12q-277 -12 -277 -179q0 -87 64 -139q64 -53 176 -53q113 0 210 66t97 190z
M817 0v135h-4q-49 -88 -144 -126t-200 -38q-174 0 -272 88q-99 88 -99 226q0 139 89 217t306 89t324 15v78q0 238 -260 238q-133 0 -193 -50t-77 -145h-158q47 326 430 326q205 0 311 -89t107 -255v-508q0 -68 14 -201h-174z" />
    <glyph glyph-name="ae" unicode="&#xe6;" horiz-adv-x="1820" 
d="M1264 909q-255 0 -310 -303h596q-10 141 -88 222t-198 81zM793 436v39q-158 0 -308 -14q-215 -20 -215 -178q0 -82 56 -125t155 -43q312 -1 312 321zM793 641q0 268 -254 268q-211 0 -248 -184l-160 4q25 141 126 233t288 91q266 0 342 -199q119 199 389 199
q194 0 320 -133t126 -404v-41h-770q0 -139 64 -250q64 -112 239 -110q127 0 195 59t98 170l166 -18q-49 -152 -165 -253q-115 -101 -279 -101t-252 52t-162 164q-125 -217 -397 -217q-201 0 -287 102q-72 85 -74 195q0 140 89 226t259 100q114 8 347 12v35z" />
    <glyph glyph-name="ccedilla" unicode="&#xe7;" 
d="M684 -117q58 0 102 -44t43 -105q0 -96 -74 -145q-75 -48 -158 -48t-206 45l33 88q61 -39 133 -39q113 0 113 80q0 86 -90 86q-47 0 -84 -22l-35 43l110 151q-223 16 -348 169q-125 154 -125 384t154 378t369 149q176 0 299 -89q122 -90 151 -266l-164 -16
q-54 159 -158 205q-52 23 -120 22q-156 -1 -257 -111q-102 -110 -102 -284t88 -287t263 -112q215 0 286 237l170 -20q-98 -332 -409 -359l-74 -100h4q28 10 86 10z" />
    <glyph glyph-name="egrave" unicode="&#xe8;" 
d="M565 1225l-266 291h221l180 -291h-135zM587 909q-139 0 -221 -92t-92 -211h631q-16 143 -97 223t-221 80zM98 473q0 260 133 420t357 160q224 -1 356 -139q133 -138 133 -394v-45h-807q0 -170 91 -265t227 -95q217 -1 299 198l164 -24q-143 -317 -471 -318
q-214 -1 -348 143t-134 359z" />
    <glyph glyph-name="eacute" unicode="&#xe9;" 
d="M438 1225l180 291h222l-267 -291h-135zM587 909q-139 0 -221 -92t-92 -211h631q-16 143 -97 223t-221 80zM98 473q0 260 133 420t357 160q224 -1 356 -139q133 -138 133 -394v-45h-807q0 -170 91 -265t227 -95q217 -1 299 198l164 -24q-143 -317 -471 -318
q-214 -1 -348 143t-134 359z" />
    <glyph glyph-name="ecircumflex" unicode="&#xea;" 
d="M702 1225l-135 190l-135 -190h-162l203 291h189l206 -291h-166zM587 909q-139 0 -221 -92t-92 -211h631q-16 143 -97 223t-221 80zM98 473q0 260 133 420t357 160q224 -1 356 -139q133 -138 133 -394v-45h-807q0 -170 91 -265t227 -95q217 -1 299 198l164 -24
q-143 -317 -471 -318q-214 -1 -348 143t-134 359z" />
    <glyph glyph-name="edieresis" unicode="&#xeb;" 
d="M244 1352q0 47 34 81q34 33 80 33t81 -34q34 -34 34 -80q0 -47 -34 -81t-81 -34q-46 0 -80 34t-34 81zM666 1352q0 47 33 81q34 33 81 33t81 -34t34 -80q0 -47 -34 -81t-81 -34t-81 34q-33 34 -33 81zM587 909q-139 0 -221 -92t-92 -211h631q-16 143 -97 223t-221 80z
M98 473q0 260 133 420t357 160q224 -1 356 -139q133 -138 133 -394v-45h-807q0 -170 91 -265t227 -95q217 -1 299 198l164 -24q-143 -317 -471 -318q-214 -1 -348 143t-134 359z" />
    <glyph glyph-name="igrave" unicode="&#xec;" horiz-adv-x="454" 
d="M223 1225l-266 291h221l180 -291h-135zM147 0v1024h160v-1024h-160z" />
    <glyph glyph-name="iacute" unicode="&#xed;" horiz-adv-x="454" 
d="M96 1225l180 291h222l-267 -291h-135zM147 0v1024h160v-1024h-160z" />
    <glyph glyph-name="icircumflex" unicode="&#xee;" horiz-adv-x="454" 
d="M360 1225l-135 190l-135 -190h-162l203 291h188l207 -291h-166zM147 0v1024h160v-1024h-160z" />
    <glyph glyph-name="idieresis" unicode="&#xef;" horiz-adv-x="454" 
d="M-98 1352q0 47 33 81q34 33 81 33t81 -34t34 -80q0 -47 -34 -81t-81 -34t-81 34q-33 34 -33 81zM324 1352q0 47 33 81q34 33 81 33t81 -34t34 -80q0 -47 -34 -81t-81 -34t-81 34q-33 34 -33 81zM147 0v1024h160v-1024h-160z" />
    <glyph glyph-name="eth" unicode="&#xf0;" horiz-adv-x="1253" 
d="M1155 549q0 -250 -134 -414t-394 -164t-395 158q-134 158 -134 380t142 383t387 161q201 0 325 -160h4q-117 266 -290 422l-236 -127l-78 69l230 125q-94 72 -234 134l113 90q137 -59 256 -150l233 129l78 -74l-229 -125q356 -317 356 -837zM983 512q0 176 -96 287
t-260 111t-260 -112q-97 -110 -97 -286t96 -287t261 -111q164 0 260 112q96 110 96 286z" />
    <glyph glyph-name="ntilde" unicode="&#xf1;" 
d="M434 1466q66 0 168 -38t134 -39t54 29t23 65h105q-27 -225 -213 -226q-65 0 -167 39t-134 39t-55 -29q-21 -30 -23 -65h-105q27 225 213 225zM825 0v618q0 147 -63 213t-172 66t-193 -87t-84 -241v-569h-159v1024h159v-174h4q100 190 326 190q113 0 216 -66
q56 -36 91 -110t35 -176v-688h-160z" />
    <glyph glyph-name="ograve" unicode="&#xf2;" horiz-adv-x="1253" 
d="M623 1225l-267 291h222l180 -291h-135zM270 512q0 -176 96 -287t261 -111q164 0 260 112q96 110 96 286t-96 287t-260 111q-165 0 -261 -112q-96 -110 -96 -286zM1155 515q0 -222 -141 -383t-394 -161t-388 158q-134 158 -134 380t142 383t394 161q253 0 387 -158
t134 -380z" />
    <glyph glyph-name="oacute" unicode="&#xf3;" horiz-adv-x="1253" 
d="M496 1225l180 291h221l-266 -291h-135zM270 512q0 -176 96 -287t261 -111q164 0 260 112q96 110 96 286t-96 287t-260 111q-165 0 -261 -112q-96 -110 -96 -286zM1155 515q0 -222 -141 -383t-394 -161t-388 158q-134 158 -134 380t142 383t394 161q253 0 387 -158
t134 -380z" />
    <glyph glyph-name="ocircumflex" unicode="&#xf4;" horiz-adv-x="1253" 
d="M760 1225l-135 190l-136 -190h-161l202 291h189l207 -291h-166zM270 512q0 -176 96 -287t261 -111q164 0 260 112q96 110 96 286t-96 287t-260 111q-165 0 -261 -112q-96 -110 -96 -286zM1155 515q0 -222 -141 -383t-394 -161t-388 158q-134 158 -134 380t142 383
t394 161q253 0 387 -158t134 -380z" />
    <glyph glyph-name="otilde" unicode="&#xf5;" horiz-adv-x="1253" 
d="M492 1466q66 0 167 -38t133 -39t55 29q22 30 23 65h105q-27 -225 -213 -226q-66 0 -168 39t-134 39q-32 1 -54 -29t-23 -65h-104q27 225 213 225zM270 512q0 -176 96 -287t261 -111q164 0 260 112q96 110 96 286t-96 287t-260 111q-165 0 -261 -112q-96 -110 -96 -286z
M1155 515q0 -222 -141 -383t-394 -161t-388 158q-134 158 -134 380t142 383t394 161q253 0 387 -158t134 -380z" />
    <glyph glyph-name="odieresis" unicode="&#xf6;" horiz-adv-x="1253" 
d="M301 1352q0 47 34 81q34 33 81 33t81 -34q33 -34 33 -80q0 -47 -34 -81t-80 -34q-47 0 -81 34t-34 81zM723 1352q0 47 34 81q34 33 81 33t81 -34q33 -34 33 -80q0 -47 -34 -81t-80 -34q-47 0 -81 34t-34 81zM270 512q0 -176 96 -287t261 -111q164 0 260 112
q96 110 96 286t-96 287t-260 111q-165 0 -261 -112q-96 -110 -96 -286zM1155 515q0 -222 -141 -383t-394 -161t-388 158q-134 158 -134 380t142 383t394 161q253 0 387 -158t134 -380z" />
    <glyph glyph-name="divide" unicode="&#xf7;" horiz-adv-x="1228" 
d="M494 96q0 51 34 86q35 35 86 35t86 -35t35 -86t-35 -86t-86 -35t-86 35q-34 35 -34 86zM494 940q0 51 34 86q35 35 86 35t86 -35t35 -86t-35 -86t-86 -35t-86 35q-34 35 -34 86zM96 459v119h1037v-119h-1037z" />
    <glyph glyph-name="oslash" unicode="&#xf8;" horiz-adv-x="1253" 
d="M618 1053q236 0 373 -127l133 127l68 -66l-139 -133q102 -141 102 -351t-141 -371q-140 -161 -378 -161t-372 129l-135 -129l-68 66l140 133q-103 145 -103 353t142 369t378 161zM622 909q-158 -1 -255 -111q-96 -110 -96 -264t53 -247l548 524q-92 98 -250 98zM634 115
q157 1 253 111t96 266t-55 243l-547 -524q96 -96 253 -96z" />
    <glyph glyph-name="ugrave" unicode="&#xf9;" 
d="M565 1225l-266 291h221l180 -291h-135zM825 0v162h-4q-100 -190 -325 -191q-137 0 -240 87q-102 87 -102 292v674h159v-631q-1 -147 63 -213t173 -66t193 88q84 87 83 240v582h160v-1024h-160z" />
    <glyph glyph-name="uacute" unicode="&#xfa;" 
d="M438 1225l180 291h222l-267 -291h-135zM825 0v162h-4q-100 -190 -325 -191q-137 0 -240 87q-102 87 -102 292v674h159v-631q-1 -147 63 -213t173 -66t193 88q84 87 83 240v582h160v-1024h-160z" />
    <glyph glyph-name="ucircumflex" unicode="&#xfb;" 
d="M702 1225l-135 190l-135 -190h-162l203 291h189l206 -291h-166zM825 0v162h-4q-100 -190 -325 -191q-137 0 -240 87q-102 87 -102 292v674h159v-631q-1 -147 63 -213t173 -66t193 88q84 87 83 240v582h160v-1024h-160z" />
    <glyph glyph-name="udieresis" unicode="&#xfc;" 
d="M244 1352q0 47 34 81q34 33 80 33t81 -34q34 -34 34 -80q0 -47 -34 -81t-81 -34q-46 0 -80 34t-34 81zM666 1352q0 47 33 81q34 33 81 33t81 -34t34 -80q0 -47 -34 -81t-81 -34t-81 34q-33 34 -33 81zM825 0v162h-4q-100 -190 -325 -191q-137 0 -240 87q-102 87 -102 292
v674h159v-631q-1 -147 63 -213t173 -66t193 88q84 87 83 240v582h160v-1024h-160z" />
    <glyph glyph-name="yacute" unicode="&#xfd;" horiz-adv-x="1024" 
d="M381 1225l180 291h221l-266 -291h-135zM236 -430l196 450l-416 1004h183l313 -848h4l315 848h177l-598 -1454h-174z" />
    <glyph glyph-name="thorn" unicode="&#xfe;" horiz-adv-x="1251" 
d="M154 -430v1970h159v-694h4q127 195 363 194q175 0 316 -121q71 -59 114 -165t43 -242q0 -238 -140 -390t-354 -151q-125 1 -211 57t-131 138h-4v-596h-159zM981 520q0 180 -94 279q-93 98 -235 98t-240 -101q-98 -102 -98 -280t92 -290t248 -112t242 114q85 112 85 292z
" />
    <glyph glyph-name="ydieresis" unicode="&#xff;" horiz-adv-x="1024" 
d="M186 1352q0 47 34 81q34 33 81 33t81 -34t34 -80q0 -47 -34 -81t-81 -34t-81 34t-34 81zM608 1352q0 47 34 81q34 33 81 33t81 -34t34 -80q0 -47 -34 -81t-81 -34t-81 34t-34 81zM236 -430l196 450l-416 1004h183l313 -848h4l315 848h177l-598 -1454h-174z" />
    <glyph glyph-name="dotlessi" unicode="&#x131;" horiz-adv-x="454" 
d="M147 0v1024h160v-1024h-160z" />
    <glyph glyph-name="Lslash" unicode="&#x141;" 
d="M174 0v614l-174 -104v156l174 106v768h172v-663l416 247v-155l-416 -248v-565h721v-156h-893z" />
    <glyph glyph-name="lslash" unicode="&#x142;" horiz-adv-x="454" 
d="M147 0v713l-149 -90v122l149 91v704h160v-606l150 90v-123l-150 -90v-811h-160z" />
    <glyph glyph-name="OE" unicode="&#x152;" horiz-adv-x="2048" 
d="M763 127q216 1 343 181t127 479t-125 463t-342 163q-217 0 -342 -174t-125 -444q0 -330 124 -499t340 -169zM1233 0v242h-4q-51 -96 -131 -158q-144 -112 -321 -113q-177 0 -306 67q-235 122 -318 433q-38 139 -38 304t39 303q71 251 252 378q159 113 365 113t322 -99
q89 -77 136 -159h4v229h719v-156h-547v-516h539v-155h-539v-557h547v-156h-719z" />
    <glyph glyph-name="oe" unicode="&#x153;" horiz-adv-x="1933" 
d="M905 522q0 186 -85 286q-86 100 -232 101t-232 -109t-86 -296t85 -287q85 -102 229 -102q244 0 307 282q14 64 14 125zM98 500q0 229 138 391t364 162q262 0 387 -232q68 111 161 171t241 61q193 0 319 -133t127 -404v-41h-770q0 -140 58 -242q70 -120 245 -118
q127 0 195 59q67 59 98 170l166 -18q-49 -152 -165 -253t-274 -101t-252 56q-95 56 -161 171q-129 -227 -395 -228q-225 0 -354 150q-128 150 -128 379zM1376 909q-254 0 -309 -303h596q-10 141 -88 222t-199 81z" />
    <glyph glyph-name="Scaron" unicode="&#x160;" horiz-adv-x="1366" 
d="M592 1618l-207 291h166l135 -191l135 191h162l-203 -291h-188zM684 1413q-170 0 -258 -83t-88 -204q0 -88 74 -151t270 -103q305 -59 433 -152t128 -286t-141 -328q-140 -135 -410 -135t-413 120t-156 335h174q45 -299 391 -299q184 0 278 87q93 87 93 207t-78 175
t-289 100q-282 56 -404 150t-122 282t143 314t375 127q467 0 526 -430h-176q-8 109 -94 191t-256 83z" />
    <glyph glyph-name="scaron" unicode="&#x161;" horiz-adv-x="1024" 
d="M420 1225l-207 291h166l135 -191l135 191h162l-203 -291h-188zM924 719h-160q-6 82 -66 136t-179 54q-117 0 -185 -43q-68 -44 -68 -116t62 -112t240 -69q180 -29 279 -92t99 -192t-106 -221t-328 -93q-397 0 -434 330h160q6 -78 68 -132t194 -54t211 42q77 42 75 111
q-2 68 -62 102t-242 64t-278 96q-98 66 -98 208t116 228t297 87q181 0 293 -92t112 -242z" />
    <glyph glyph-name="Ydieresis" unicode="&#x178;" horiz-adv-x="1253" 
d="M301 1745q0 47 34 81t81 34t81 -34q33 -34 33 -81t-34 -81t-80 -34q-47 0 -81 34t-34 81zM723 1745q0 47 34 81t81 34t81 -34q33 -34 33 -81t-34 -81t-80 -34q-47 0 -81 34t-34 81zM545 0v629l-531 911h211l406 -758l397 758h211l-522 -911v-629h-172z" />
    <glyph glyph-name="Zcaron" unicode="&#x17d;" horiz-adv-x="1251" 
d="M535 1618l-207 291h166l135 -191l135 191h162l-203 -291h-188zM43 0v143l946 1241h-872v156h1091v-143l-946 -1241h924v-156h-1143z" />
    <glyph glyph-name="zcaron" unicode="&#x17e;" horiz-adv-x="909" 
d="M362 1225l-206 291h166l135 -191l135 191h162l-203 -291h-189zM57 0v139l596 742h-575v143h774v-139l-596 -742h596v-143h-795z" />
    <glyph glyph-name="florin" unicode="&#x192;" 
d="M199 -274q81 0 117 43t51 155l98 793h-197l13 106h196l64 473q16 115 94 180t211 64h84l-19 -156h-49q-78 0 -110 -34t-50 -150l-51 -377h219l-12 -106h-219l-104 -815q-25 -196 -101 -264t-221 -68h-86l18 156h54z" />
    <glyph glyph-name="circumflex" unicode="&#x2c6;" horiz-adv-x="454" 
d="M360 1225l-135 190l-135 -190h-162l203 291h188l207 -291h-166z" />
    <glyph glyph-name="caron" unicode="&#x2c7;" horiz-adv-x="454" 
d="M135 1225l-207 291h166l135 -191l136 191h161l-202 -291h-189z" />
    <glyph glyph-name="uni02C9" unicode="&#x2c9;" horiz-adv-x="454" 
d="M-53 1296v119h561v-119h-561z" />
    <glyph glyph-name="breve" unicode="&#x2d8;" horiz-adv-x="454" 
d="M227 1356q94 0 155 46q60 46 67 114h94q-6 -129 -87 -204q-80 -75 -228 -75t-229 75t-87 204h94q6 -68 66 -114t155 -46z" />
    <glyph glyph-name="dotaccent" unicode="&#x2d9;" horiz-adv-x="454" 
d="M113 1352q0 47 33 81q34 33 81 33t81 -34t34 -80q0 -47 -34 -81t-81 -34t-81 34q-33 34 -33 81z" />
    <glyph glyph-name="ring" unicode="&#x2da;" horiz-adv-x="454" 
d="M354 1401q0 53 -38 90t-89 37t-89 -37t-38 -90t38 -90t89 -37t89 37t38 90zM18 1401q0 86 62 147q62 62 147 62t147 -62t62 -147t-61 -147t-147 -62t-148 62t-62 147z" />
    <glyph glyph-name="ogonek" unicode="&#x2db;" horiz-adv-x="454" 
d="M229 -250q0 -57 31 -86t77 -29t85 17l16 -84q-57 -27 -142 -27t-156 49t-70 144q0 68 55 128t168 138h98q-162 -158 -162 -250z" />
    <glyph glyph-name="tilde" unicode="&#x2dc;" horiz-adv-x="454" 
d="M92 1466q66 0 168 -38t134 -39t54 29t23 65h104q-27 -225 -213 -226q-66 0 -167 39t-133 39t-55 -29q-21 -30 -23 -65h-105q27 225 213 225z" />
    <glyph glyph-name="hungarumlaut" unicode="&#x2dd;" horiz-adv-x="454" 
d="M-141 1225l180 291h221l-266 -291h-135zM211 1225l180 291h221l-266 -291h-135z" />
    <glyph glyph-name="uni03A9" unicode="&#x3a9;" horiz-adv-x="1472" 
d="M408 129v6q-121 115 -200 290t-79 386q0 317 175 519t440 202q264 0 430 -208t165 -503q0 -219 -82 -400t-198 -286v-6h309v-129h-491v94q131 94 220 276t89 423q-5 333 -201 513q-104 95 -246 95q-205 0 -329 -175t-125 -421q0 -246 90 -434t217 -277v-94h-490v129h306z
" />
    <glyph glyph-name="uni03BC" unicode="&#x3bc;" 
d="M825 0v162h-4q-100 -190 -325 -191q-113 0 -183 82v-483h-159v1454h159v-631q-1 -147 63 -213t173 -66t193 88q84 87 83 240v582h160v-1024h-160z" />
    <glyph glyph-name="pi" unicode="&#x3c0;" horiz-adv-x="1171" 
d="M950 987v-674q0 -199 29 -313h-148q-35 66 -34 299v688h-373q-8 -229 -52 -534t-100 -453h-149q57 168 100 462t49 525q-154 0 -227 -24l-25 102q90 57 295 57h815l-14 -135h-166z" />
    <glyph glyph-name="endash" unicode="&#x2013;" horiz-adv-x="1024" 
d="M0 465v143h1024v-143h-1024z" />
    <glyph glyph-name="emdash" unicode="&#x2014;" horiz-adv-x="2048" 
d="M0 465v143h2048v-143h-2048z" />
    <glyph glyph-name="quoteleft" unicode="&#x2018;" horiz-adv-x="569" 
d="M115 1100l235 469l105 -49l-176 -496z" />
    <glyph glyph-name="quoteright" unicode="&#x2019;" horiz-adv-x="569" 
d="M115 1073l176 496l164 -76l-236 -469z" />
    <glyph glyph-name="quotesinglbase" unicode="&#x201a;" horiz-adv-x="569" 
d="M115 -283l176 496l164 -76l-236 -469z" />
    <glyph glyph-name="quotedblleft" unicode="&#x201c;" 
d="M197 1100l235 469l105 -49l-177 -496zM602 1100l236 469l104 -49l-176 -496z" />
    <glyph glyph-name="quotedblright" unicode="&#x201d;" 
d="M602 1073l176 496l164 -76l-235 -469zM197 1073l176 496l164 -76l-236 -469z" />
    <glyph glyph-name="quotedblbase" unicode="&#x201e;" 
d="M602 -283l176 496l164 -76l-235 -469zM197 -283l176 496l164 -76l-236 -469z" />
    <glyph glyph-name="dagger" unicode="&#x2020;" 
d="M489 -248v1182h-350v156h350v450h160v-450h350v-156h-350v-1182h-160z" />
    <glyph glyph-name="daggerdbl" unicode="&#x2021;" 
d="M489 303v686h-350v156h350v395h160v-395h350v-156h-350v-686h350v-156h-350v-395h-160v395h-350v156h350z" />
    <glyph glyph-name="bullet" unicode="&#x2022;" horiz-adv-x="1024" 
d="M127 770q0 160 113 272q112 112 272 113q160 0 272 -113q112 -112 113 -272q0 -160 -113 -272q-112 -112 -272 -113q-160 1 -272 113t-113 272z" />
    <glyph glyph-name="ellipsis" unicode="&#x2026;" horiz-adv-x="2048" 
d="M1591 90q0 47 34 81t81 34t81 -34t34 -81t-34 -81t-81 -34t-81 34t-34 81zM909 90q0 47 34 81t81 34t81 -34t34 -81t-34 -81t-81 -34t-81 34t-34 81zM227 90q0 47 34 81t81 34t81 -34t34 -81t-34 -81t-81 -34t-81 34t-34 81z" />
    <glyph glyph-name="perthousand" unicode="&#x2030;" horiz-adv-x="2048" 
d="M82 -70l1030 1655h129l-1030 -1655h-129zM1425 338q0 160 83 261q82 101 220 101t221 -101t83 -261t-83 -261t-220 -101t-221 100q-84 102 -83 262zM1884 338q0 120 -44 188t-112 68t-111 -68q-44 -68 -44 -188t44 -188t112 -68q67 0 111 68t44 188zM475 1178
q0 120 -44 188t-112 68q-67 0 -111 -68t-44 -188t44 -189q44 -67 112 -67t111 68q44 68 44 188zM16 1178q0 160 83 261t220 101t221 -101t83 -261q0 -160 -83 -262q-82 -102 -220 -101q-138 -1 -221 101t-83 262zM700 338q0 160 83 261t221 101t220 -101q83 -101 83 -261
t-83 -261t-220 -101q-136 0 -220 100q-84 102 -84 262zM1159 338q0 120 -44 188q-43 68 -111 68t-112 -68t-44 -188t44 -188t112 -68t112 68t43 188z" />
    <glyph glyph-name="guilsinglleft" unicode="&#x2039;" horiz-adv-x="569" 
d="M319 164l-219 377l226 368h143l-229 -368l223 -377h-144z" />
    <glyph glyph-name="guilsinglright" unicode="&#x203a;" horiz-adv-x="569" 
d="M100 164l230 368l-224 377h144l219 -377l-225 -368h-144z" />
    <glyph glyph-name="fraction" unicode="&#x2044;" horiz-adv-x="342" 
d="M-371 -25l946 1565h138l-946 -1565h-138z" />
    <glyph glyph-name="Euro" unicode="&#x20ac;" 
d="M657 1397q-258 0 -323 -418h577l-37 -119h-552q-7 -120 0 -182h495l-37 -119h-446q57 -440 338 -440q82 1 151 59t92 164l172 -14q-18 -148 -122 -250t-304 -102t-333 153q-133 154 -168 430h-154l37 119h107q-6 79 2 182h-146l37 119h123q43 260 170 411t323 150
q416 0 435 -395l-172 -15q-6 129 -77 198t-188 69z" />
    <glyph glyph-name="afii61289" unicode="&#x2113;" horiz-adv-x="997" 
d="M371 1159v-475q319 360 319 633q0 229 -147 229q-70 0 -121 -94t-51 -293zM569 -14q-170 0 -253 112t-89 291v31q-20 -18 -63 -54t-55 -47l-48 91q129 111 164 147v594q0 268 92 390q93 122 221 122t192 -95t65 -249q0 -362 -424 -791l2 -75q0 -174 63 -259
q62 -85 156 -85t167 60t118 144l73 -65q-137 -262 -381 -262z" />
    <glyph glyph-name="trademark" unicode="&#x2122;" horiz-adv-x="2027" 
d="M1606 696v738h-4l-293 -738h-74l-293 738h-4v-738h-119v844h195l262 -661l254 661h194v-844h-118zM295 696v738h-270v106h659v-106h-270v-738h-119z" />
    <glyph glyph-name="Omega" unicode="&#x2126;" horiz-adv-x="1472" 
d="M408 129v6q-121 115 -200 290t-79 386q0 317 175 519t440 202q264 0 430 -208t165 -503q0 -219 -82 -400t-198 -286v-6h309v-129h-491v94q131 94 220 276t89 423q-5 333 -201 513q-104 95 -246 95q-205 0 -329 -175t-125 -421q0 -246 90 -434t217 -277v-94h-490v129h306z
" />
    <glyph glyph-name="estimated" unicode="&#x212e;" horiz-adv-x="1886" 
d="M1491 791v430q0 31 -21 49q-223 223 -528 223t-528 -229q-20 -20 -21 -54v-419q0 -12 10 -13h1080q8 1 8 13zM1810 735h-1407q-10 0 -10 -8v-426q0 -27 19 -49q220 -232 542 -232t549 261h125q-119 -141 -300 -223t-388 -81q-358 1 -612 229t-254 552t254 553t614 229
t614 -229t254 -553v-23z" />
    <glyph glyph-name="partialdiff" unicode="&#x2202;" horiz-adv-x="1124" 
d="M496 115h2q141 0 236 164t116 397q-27 86 -108 159q-82 73 -200 73t-209 -126q-91 -125 -91 -295t70 -271t184 -101zM509 1694q205 0 357 -209t152 -608t-139 -645t-396 -246q-188 0 -290 145q-103 145 -103 371t130 379q130 154 308 153q125 0 213 -64t125 -134h2
q2 25 2 92q0 280 -112 458t-270 178q-156 0 -277 -104l-53 115q145 119 351 119z" />
    <glyph glyph-name="Delta" unicode="&#x2206;" horiz-adv-x="1329" 
d="M219 127h881l-299 834q-16 53 -69 198q-52 145 -66 201h-9q-10 -48 -60 -188t-62 -181zM66 0v106l514 1442h176l508 -1439v-109h-1198z" />
    <glyph glyph-name="product" unicode="&#x220f;" horiz-adv-x="1437" 
d="M1380 1366h-223v-1575h-149v1575h-580v-1575h-149v1575h-224v141h1325v-141z" />
    <glyph glyph-name="summation" unicode="&#x2211;" 
d="M1092 -209h-1043v105l555 751l-530 752v108h985v-133h-776v-8l495 -694l-536 -725v-8h850v-148z" />
    <glyph glyph-name="minus" unicode="&#x2212;" horiz-adv-x="1228" 
d="M96 459v119h1037v-119h-1037z" />
    <glyph glyph-name="uni2215" unicode="&#x2215;" horiz-adv-x="342" 
d="M-371 -25l946 1565h138l-946 -1565h-138z" />
    <glyph glyph-name="uni2219" unicode="&#x2219;" horiz-adv-x="569" 
d="M164 670q0 51 35 86t86 35t86 -35t35 -86t-35 -86t-86 -35t-86 35t-35 86z" />
    <glyph glyph-name="radical" unicode="&#x221a;" horiz-adv-x="1183" 
d="M1180 1792l-457 -2116h-135l-332 1006l-154 -59l-30 96l280 108l264 -798q25 -106 35 -158l2 -2q6 39 29 158l383 1765h115z" />
    <glyph glyph-name="infinity" unicode="&#x221e;" horiz-adv-x="1622" 
d="M1202 854h-2q-49 0 -103 -30t-83 -54t-82 -82q-53 -57 -60 -63q119 -131 187 -183q69 -52 155 -51q86 0 143 69q56 69 56 169t-59 163q-60 62 -152 62zM432 391h2q65 0 116 30t90 68q111 112 120 125q-88 105 -142 155q-53 49 -99 67t-99 18q-98 0 -154 -69t-56 -167
t62 -162t160 -65zM1518 629v-2q0 -147 -96 -241t-208 -93q-112 0 -198 58t-201 192q-70 -80 -117 -125t-124 -85t-156 -40q-129 0 -220 94q-92 94 -92 234q0 139 92 233t216 94t216 -66t191 -184q123 135 178 179q100 74 213 71q138 0 222 -89t84 -230z" />
    <glyph glyph-name="integral" unicode="&#x222b;" horiz-adv-x="745" 
d="M291 1309q0 174 24 279q25 105 86 169q76 84 195 84q68 0 113 -29l-27 -108q-35 22 -87 22t-93 -53q-70 -84 -70 -385q0 -168 13 -540t14 -549q0 -297 -90 -437q-66 -109 -205 -108q-82 0 -133 35l26 112q55 -25 93 -24q169 0 167 424q0 178 -13 556t-13 552z" />
    <glyph glyph-name="approxequal" unicode="&#x2248;" horiz-adv-x="1163" 
d="M801 309q-73 1 -126 27t-116 61q-125 74 -191 74t-114 -42q-47 -42 -94 -118l-66 54q100 203 285 202q99 0 214 -72q25 -16 50 -30t46 -25q21 -12 31 -15t34 -10q23 -7 69 -7q95 0 181 157l63 -55q-100 -201 -266 -201zM807 762q109 0 197 158l63 -56q-96 -199 -266 -198
q-57 0 -105 18t-154 79q-104 61 -174 61t-114 -41q-45 -40 -94 -115l-66 53q47 94 121 147q75 54 155 54t119 -20t79 -42t47 -26t31 -16t33 -19q55 -37 128 -37z" />
    <glyph glyph-name="notequal" unicode="&#x2260;" horiz-adv-x="1163" 
d="M1057 866v-100h-365l-139 -307h504v-101h-545l-111 -243l-79 35l94 208h-310v101h353l137 307h-490v100h531l108 242l80 -37l-92 -205h324z" />
    <glyph glyph-name="lessequal" unicode="&#x2264;" horiz-adv-x="1163" 
d="M1057 23h-951v104h951v-104zM1051 215l-932 475v105l932 475v-121l-826 -401v-7l826 -405v-121z" />
    <glyph glyph-name="greaterequal" unicode="&#x2265;" horiz-adv-x="1163" 
d="M1057 23h-948v104h948v-104zM121 1270l932 -475v-105l-932 -475v121l823 403v6l-823 404v121z" />
    <glyph glyph-name="lozenge" unicode="&#x25ca;" horiz-adv-x="1185" 
d="M928 750l-295 602q-20 47 -39 114h-6q-12 -47 -39 -114l-295 -594l297 -608q23 -51 37 -111h8q14 66 37 108zM1069 754l-418 -846h-125l-411 846l417 845h125z" />
    </font>
</defs>
</svg>
