<?xml version="1.0" encoding="utf-8"?>
<!-- Generator: Adobe Illustrator 18.0.0, SVG Export Plug-In . SVG Version: 6.00 Build 0)  -->
<!DOCTYPE svg PUBLIC "-//W3C//DTD SVG 1.1//EN" "http://www.w3.org/Graphics/SVG/1.1/DTD/svg11.dtd">
<svg version="1.1" id="Layer_1" xmlns="http://www.w3.org/2000/svg" xmlns:xlink="http://www.w3.org/1999/xlink" x="0px" y="0px"
	 viewBox="0 0 80 400" enable-background="new 0 0 80 400" xml:space="preserve">
<g>
	<g>
		<rect x="-10.9" y="0" fill="#231F20" width="405.5" height="0.2"/>
	</g>
	<g>
		<rect x="-10.9" y="26.7" fill="#231F20" width="405.5" height="0.2"/>
	</g>
	<g>
		<rect x="-10.9" y="53.3" fill="#231F20" width="405.5" height="0.2"/>
	</g>
	<g>
		<rect x="-10.9" y="80" fill="#231F20" width="405.5" height="0.2"/>
	</g>
	<g>
		<rect x="-10.9" y="106.6" fill="#231F20" width="405.5" height="0.2"/>
	</g>
	<g>
		<rect x="-10.9" y="133.3" fill="#231F20" width="405.5" height="0.2"/>
	</g>
	<g>
		<rect x="-10.9" y="159.9" fill="#231F20" width="405.5" height="0.2"/>
	</g>
	<g>
		<rect x="-10.9" y="186.6" fill="#231F20" width="405.5" height="0.2"/>
	</g>
	<g>
		<rect x="-10.9" y="213.2" fill="#231F20" width="405.5" height="0.2"/>
	</g>
	<g>
		<rect x="-10.9" y="239.9" fill="#231F20" width="405.5" height="0.2"/>
	</g>
	<g>
		<rect x="-10.9" y="266.5" fill="#231F20" width="405.5" height="0.2"/>
	</g>
	<g>
		<rect x="-10.9" y="293.2" fill="#231F20" width="405.5" height="0.2"/>
	</g>
	<g>
		<rect x="-10.9" y="319.8" fill="#231F20" width="405.5" height="0.2"/>
	</g>
	<g>
		<rect x="-10.9" y="346.5" fill="#231F20" width="405.5" height="0.2"/>
	</g>
	<g>
		<rect x="-10.9" y="399.8" opacity="0" fill="#231F20" width="405.5" height="0.2"/>
	</g>
	<g>
		<rect x="-10.9" y="373.1" fill="#231F20" width="405.5" height="0.2"/>
	</g>
	<g>
		<rect x="-10.9" y="13.3" fill="#231F20" width="405.5" height="0.2"/>
	</g>
	<g>
		<rect x="-10.9" y="40" fill="#231F20" width="405.5" height="0.2"/>
	</g>
	<g>
		<rect x="-10.9" y="66.6" fill="#231F20" width="405.5" height="0.2"/>
	</g>
	<g>
		<rect x="-10.9" y="93.3" fill="#231F20" width="405.5" height="0.2"/>
	</g>
	<g>
		<rect x="-10.9" y="119.9" fill="#231F20" width="405.5" height="0.2"/>
	</g>
	<g>
		<rect x="-10.9" y="146.6" fill="#231F20" width="405.5" height="0.2"/>
	</g>
	<g>
		<rect x="-10.9" y="173.2" fill="#231F20" width="405.5" height="0.2"/>
	</g>
	<g>
		<rect x="-10.9" y="199.9" fill="#231F20" width="405.5" height="0.2"/>
	</g>
	<g>
		<rect x="-10.9" y="226.5" fill="#231F20" width="405.5" height="0.2"/>
	</g>
	<g>
		<rect x="-10.9" y="253.2" fill="#231F20" width="405.5" height="0.2"/>
	</g>
	<g>
		<rect x="-10.9" y="279.8" fill="#231F20" width="405.5" height="0.2"/>
	</g>
	<g>
		<rect x="-10.9" y="306.5" fill="#231F20" width="405.5" height="0.2"/>
	</g>
	<g>
		<rect x="-10.9" y="333.1" fill="#231F20" width="405.5" height="0.2"/>
	</g>
	<g>
		<rect x="-10.9" y="359.8" fill="#231F20" width="405.5" height="0.2"/>
	</g>
	<g>
		<rect x="-10.9" y="386.4" fill="#231F20" width="405.5" height="0.2"/>
	</g>
	<g>
		<rect x="-10.9" y="6.7" fill="#231F20" width="405.5" height="0.2"/>
	</g>
	<g>
		<rect x="-10.9" y="33.3" fill="#231F20" width="405.5" height="0.2"/>
	</g>
	<g>
		<rect x="-10.9" y="60" fill="#231F20" width="405.5" height="0.2"/>
	</g>
	<g>
		<rect x="-10.9" y="86.6" fill="#231F20" width="405.5" height="0.2"/>
	</g>
	<g>
		<rect x="-10.9" y="113.3" fill="#231F20" width="405.5" height="0.2"/>
	</g>
	<g>
		<rect x="-10.9" y="139.9" fill="#231F20" width="405.5" height="0.2"/>
	</g>
	<g>
		<rect x="-10.9" y="166.6" fill="#231F20" width="405.5" height="0.2"/>
	</g>
	<g>
		<rect x="-10.9" y="193.2" fill="#231F20" width="405.5" height="0.2"/>
	</g>
	<g>
		<rect x="-10.9" y="219.9" fill="#231F20" width="405.5" height="0.2"/>
	</g>
	<g>
		<rect x="-10.9" y="246.5" fill="#231F20" width="405.5" height="0.2"/>
	</g>
	<g>
		<rect x="-10.9" y="273.2" fill="#231F20" width="405.5" height="0.2"/>
	</g>
	<g>
		<rect x="-10.9" y="299.8" fill="#231F20" width="405.5" height="0.2"/>
	</g>
	<g>
		<rect x="-10.9" y="326.5" fill="#231F20" width="405.5" height="0.2"/>
	</g>
	<g>
		<rect x="-10.9" y="353.1" fill="#231F20" width="405.5" height="0.2"/>
	</g>
	<g>
		<rect x="-10.9" y="379.8" fill="#231F20" width="405.5" height="0.2"/>
	</g>
	<g>
		<rect x="-10.9" y="20" fill="#231F20" width="405.5" height="0.2"/>
	</g>
	<g>
		<rect x="-10.9" y="46.6" fill="#231F20" width="405.5" height="0.2"/>
	</g>
	<g>
		<rect x="-10.9" y="73.3" fill="#231F20" width="405.5" height="0.2"/>
	</g>
	<g>
		<rect x="-10.9" y="99.9" fill="#231F20" width="405.5" height="0.2"/>
	</g>
	<g>
		<rect x="-10.9" y="126.6" fill="#231F20" width="405.5" height="0.2"/>
	</g>
	<g>
		<rect x="-10.9" y="153.2" fill="#231F20" width="405.5" height="0.2"/>
	</g>
	<g>
		<rect x="-10.9" y="179.9" fill="#231F20" width="405.5" height="0.2"/>
	</g>
	<g>
		<rect x="-10.9" y="206.5" fill="#231F20" width="405.5" height="0.2"/>
	</g>
	<g>
		<rect x="-10.9" y="233.2" fill="#231F20" width="405.5" height="0.2"/>
	</g>
	<g>
		<rect x="-10.9" y="259.8" fill="#231F20" width="405.5" height="0.2"/>
	</g>
	<g>
		<rect x="-10.9" y="286.5" fill="#231F20" width="405.5" height="0.2"/>
	</g>
	<g>
		<rect x="-10.9" y="313.1" fill="#231F20" width="405.5" height="0.2"/>
	</g>
	<g>
		<rect x="-10.9" y="339.8" fill="#231F20" width="405.5" height="0.2"/>
	</g>
	<g>
		<rect x="-10.9" y="366.4" fill="#231F20" width="405.5" height="0.2"/>
	</g>
	<g>
		<rect x="-10.9" y="393.1" fill="#231F20" width="405.5" height="0.2"/>
	</g>
</g>
</svg>
