<?xml version="1.0" encoding="utf-8"?>
<!-- Generator: Adobe Illustrator 18.0.0, SVG Export Plug-In . SVG Version: 6.00 Build 0)  -->
<!DOCTYPE svg PUBLIC "-//W3C//DTD SVG 1.1//EN" "http://www.w3.org/Graphics/SVG/1.1/DTD/svg11.dtd">
<svg version="1.1" id="Layer_1" xmlns="http://www.w3.org/2000/svg" xmlns:xlink="http://www.w3.org/1999/xlink" x="0px" y="0px"
	 viewBox="0 0 80 400" enable-background="new 0 0 80 400" xml:space="preserve">
<g>
	<rect x="-17.1" y="0" fill="#231F20" width="405.5" height="0.2"/>
</g>
<g>
	<rect x="-17.1" y="26.7" fill="#231F20" width="405.5" height="0.2"/>
</g>
<g>
	<rect x="-17.1" y="53.3" fill="#231F20" width="405.5" height="0.2"/>
</g>
<g>
	<rect x="-17.1" y="80" fill="#231F20" width="405.5" height="0.2"/>
</g>
<g>
	<rect x="-17.1" y="106.6" fill="#231F20" width="405.5" height="0.2"/>
</g>
<g>
	<rect x="-17.1" y="133.3" fill="#231F20" width="405.5" height="0.2"/>
</g>
<g>
	<rect x="-17.1" y="159.9" fill="#231F20" width="405.5" height="0.2"/>
</g>
<g>
	<rect x="-17.1" y="186.6" fill="#231F20" width="405.5" height="0.2"/>
</g>
<g>
	<rect x="-17.1" y="213.2" fill="#231F20" width="405.5" height="0.2"/>
</g>
<g>
	<rect x="-17.1" y="239.9" fill="#231F20" width="405.5" height="0.2"/>
</g>
<g>
	<rect x="-17.1" y="266.5" fill="#231F20" width="405.5" height="0.2"/>
</g>
<g>
	<rect x="-17.1" y="293.2" fill="#231F20" width="405.5" height="0.2"/>
</g>
<g>
	<rect x="-17.1" y="319.8" fill="#231F20" width="405.5" height="0.2"/>
</g>
<g>
	<rect x="-17.1" y="346.5" fill="#231F20" width="405.5" height="0.2"/>
</g>
<g opacity="0">
	<rect x="-17.1" y="399.8" fill="#231F20" width="405.5" height="0.2"/>
</g>
<g>
	<rect x="-17.1" y="373.1" fill="#231F20" width="405.5" height="0.2"/>
</g>
</svg>
