<?xml version="1.0" encoding="utf-8"?>
<!-- Generator: Adobe Illustrator 18.0.0, SVG Export Plug-In . SVG Version: 6.00 Build 0)  -->
<!DOCTYPE svg PUBLIC "-//W3C//DTD SVG 1.1//EN" "http://www.w3.org/Graphics/SVG/1.1/DTD/svg11.dtd">
<svg version="1.1" id="Layer_1" xmlns="http://www.w3.org/2000/svg" xmlns:xlink="http://www.w3.org/1999/xlink" x="0px" y="0px"
	 viewBox="0 0 80 185" enable-background="new 0 0 80 185" xml:space="preserve">
<g opacity="0">
	<rect x="-159.9" y="0" fill="#231F20" width="405.5" height="0.2"/>
</g>
<g>
	<rect x="-159.9" y="26.9" fill="#231F20" width="405.5" height="0.2"/>
</g>
<g>
	<rect x="-159.9" y="53.7" fill="#231F20" width="405.5" height="0.2"/>
</g>
<g>
	<rect x="-159.9" y="80.6" fill="#231F20" width="405.5" height="0.2"/>
</g>
<g>
	<rect x="-159.9" y="107.5" fill="#231F20" width="405.5" height="0.2"/>
</g>
<g>
	<rect x="-159.9" y="134.4" fill="#231F20" width="405.5" height="0.2"/>
</g>
<g>
	<rect x="-159.9" y="161.2" fill="#231F20" width="405.5" height="0.2"/>
</g>
<g>
	<rect x="-159.9" y="13.4" fill="#231F20" width="405.5" height="0.2"/>
</g>
<g>
	<rect x="-159.9" y="40.3" fill="#231F20" width="405.5" height="0.2"/>
</g>
<g>
	<rect x="-159.9" y="67.2" fill="#231F20" width="405.5" height="0.2"/>
</g>
<g>
	<rect x="-159.9" y="94.1" fill="#231F20" width="405.5" height="0.2"/>
</g>
<g>
	<rect x="-159.9" y="120.9" fill="#231F20" width="405.5" height="0.2"/>
</g>
<g>
	<rect x="-159.9" y="147.8" fill="#231F20" width="405.5" height="0.2"/>
</g>
<g>
	<rect x="-159.9" y="174.7" fill="#231F20" width="405.5" height="0.2"/>
</g>
<g>
	<rect x="-159.9" y="6.7" fill="#231F20" width="405.5" height="0.2"/>
</g>
<g>
	<rect x="-159.9" y="33.6" fill="#231F20" width="405.5" height="0.2"/>
</g>
<g>
	<rect x="-159.9" y="60.5" fill="#231F20" width="405.5" height="0.2"/>
</g>
<g>
	<rect x="-159.9" y="87.3" fill="#231F20" width="405.5" height="0.2"/>
</g>
<g>
	<rect x="-159.9" y="114.2" fill="#231F20" width="405.5" height="0.2"/>
</g>
<g>
	<rect x="-159.9" y="141.1" fill="#231F20" width="405.5" height="0.2"/>
</g>
<g>
	<rect x="-159.9" y="168" fill="#231F20" width="405.5" height="0.2"/>
</g>
<g>
	<rect x="-159.9" y="20.2" fill="#231F20" width="405.5" height="0.2"/>
</g>
<g>
	<rect x="-159.9" y="47" fill="#231F20" width="405.5" height="0.2"/>
</g>
<g>
	<rect x="-159.9" y="73.9" fill="#231F20" width="405.5" height="0.2"/>
</g>
<g>
	<rect x="-159.9" y="100.8" fill="#231F20" width="405.5" height="0.2"/>
</g>
<g>
	<rect x="-159.9" y="127.6" fill="#231F20" width="405.5" height="0.2"/>
</g>
<g>
	<rect x="-159.9" y="154.5" fill="#231F20" width="405.5" height="0.2"/>
</g>
<g>
	<rect x="-159.9" y="181.4" fill="#231F20" width="405.5" height="0.2"/>
</g>
<g>
	<rect x="-159.9" y="3.4" fill="#231F20" width="405.5" height="0.2"/>
</g>
<g>
	<rect x="-159.9" y="30.2" fill="#231F20" width="405.5" height="0.2"/>
</g>
<g>
	<rect x="-159.9" y="57.1" fill="#231F20" width="405.5" height="0.2"/>
</g>
<g>
	<rect x="-159.9" y="84" fill="#231F20" width="405.5" height="0.2"/>
</g>
<g>
	<rect x="-159.9" y="110.9" fill="#231F20" width="405.5" height="0.2"/>
</g>
<g>
	<rect x="-159.9" y="137.7" fill="#231F20" width="405.5" height="0.2"/>
</g>
<g>
	<rect x="-159.9" y="164.6" fill="#231F20" width="405.5" height="0.2"/>
</g>
<g>
	<rect x="-159.9" y="16.8" fill="#231F20" width="405.5" height="0.2"/>
</g>
<g>
	<rect x="-159.9" y="43.7" fill="#231F20" width="405.5" height="0.2"/>
</g>
<g>
	<rect x="-159.9" y="70.5" fill="#231F20" width="405.5" height="0.2"/>
</g>
<g>
	<rect x="-159.9" y="97.4" fill="#231F20" width="405.5" height="0.2"/>
</g>
<g>
	<rect x="-159.9" y="124.3" fill="#231F20" width="405.5" height="0.2"/>
</g>
<g>
	<rect x="-159.9" y="151.2" fill="#231F20" width="405.5" height="0.2"/>
</g>
<g>
	<rect x="-159.9" y="178" fill="#231F20" width="405.5" height="0.2"/>
</g>
<g>
	<rect x="-159.9" y="10.1" fill="#231F20" width="405.5" height="0.2"/>
</g>
<g>
	<rect x="-159.9" y="37" fill="#231F20" width="405.5" height="0.2"/>
</g>
<g>
	<rect x="-159.9" y="63.8" fill="#231F20" width="405.5" height="0.2"/>
</g>
<g>
	<rect x="-159.9" y="90.7" fill="#231F20" width="405.5" height="0.2"/>
</g>
<g>
	<rect x="-159.9" y="117.6" fill="#231F20" width="405.5" height="0.2"/>
</g>
<g>
	<rect x="-159.9" y="144.4" fill="#231F20" width="405.5" height="0.2"/>
</g>
<g>
	<rect x="-159.9" y="171.3" fill="#231F20" width="405.5" height="0.2"/>
</g>
<g>
	<rect x="-159.9" y="23.5" fill="#231F20" width="405.5" height="0.2"/>
</g>
<g>
	<rect x="-159.9" y="50.4" fill="#231F20" width="405.5" height="0.2"/>
</g>
<g>
	<rect x="-159.9" y="77.3" fill="#231F20" width="405.5" height="0.2"/>
</g>
<g>
	<rect x="-159.9" y="104.1" fill="#231F20" width="405.5" height="0.2"/>
</g>
<g>
	<rect x="-159.9" y="131" fill="#231F20" width="405.5" height="0.2"/>
</g>
<g>
	<rect x="-159.9" y="157.9" fill="#231F20" width="405.5" height="0.2"/>
</g>
<g opacity="0">
	<rect x="-159.9" y="184.8" fill="#231F20" width="405.5" height="0.2"/>
</g>
</svg>
