<?xml version="1.0" encoding="utf-8"?>
<!-- Generator: Adobe Illustrator 18.0.0, SVG Export Plug-In . SVG Version: 6.00 Build 0)  -->
<!DOCTYPE svg PUBLIC "-//W3C//DTD SVG 1.1//EN" "http://www.w3.org/Graphics/SVG/1.1/DTD/svg11.dtd">
<svg version="1.1" id="Layer_1" xmlns="http://www.w3.org/2000/svg" xmlns:xlink="http://www.w3.org/1999/xlink" x="0px" y="0px"
	 viewBox="0 0 1320 400" enable-background="new 0 0 1320 400" xml:space="preserve">
<g>
	<rect x="-13" fill="#231F20" width="673" height="0.2"/>
</g>
<g>
	<rect x="-13" y="26.7" fill="#231F20" width="673" height="0.2"/>
</g>
<g>
	<rect x="-13" y="53.3" fill="#231F20" width="673" height="0.2"/>
</g>
<g>
	<rect x="-13" y="80" fill="#231F20" width="673" height="0.2"/>
</g>
<g>
	<rect x="-13" y="106.6" fill="#231F20" width="673" height="0.2"/>
</g>
<g>
	<rect x="-13" y="133.3" fill="#231F20" width="673" height="0.2"/>
</g>
<g>
	<rect x="-13" y="159.9" fill="#231F20" width="673" height="0.2"/>
</g>
<g>
	<rect x="-13" y="186.6" fill="#231F20" width="673" height="0.2"/>
</g>
<g>
	<rect x="-13" y="213.2" fill="#231F20" width="673" height="0.2"/>
</g>
<g>
	<rect x="-13" y="239.9" fill="#231F20" width="673" height="0.2"/>
</g>
<g>
	<rect x="-13" y="266.5" fill="#231F20" width="673" height="0.2"/>
</g>
<g>
	<rect x="-13" y="293.2" fill="#231F20" width="673" height="0.2"/>
</g>
<g>
	<rect x="-13" y="319.8" fill="#231F20" width="673" height="0.2"/>
</g>
<g>
	<rect x="-13" y="346.5" fill="#231F20" width="673" height="0.2"/>
</g>
<g opacity="0">
	<rect x="-13" y="399.8" fill="#231F20" width="673" height="0.2"/>
</g>
<g>
	<rect x="-13" y="373.1" fill="#231F20" width="673" height="0.2"/>
</g>
<g>
	<rect x="-13" y="13.3" fill="#231F20" width="673" height="0.2"/>
</g>
<g>
	<rect x="-13" y="40" fill="#231F20" width="673" height="0.2"/>
</g>
<g>
	<rect x="-13" y="66.6" fill="#231F20" width="673" height="0.2"/>
</g>
<g>
	<rect x="-13" y="93.3" fill="#231F20" width="673" height="0.2"/>
</g>
<g>
	<rect x="-13" y="119.9" fill="#231F20" width="673" height="0.2"/>
</g>
<g>
	<rect x="-13" y="146.6" fill="#231F20" width="673" height="0.2"/>
</g>
<g>
	<rect x="-13" y="173.2" fill="#231F20" width="673" height="0.2"/>
</g>
<g>
	<rect x="-13" y="199.9" fill="#231F20" width="673" height="0.2"/>
</g>
<g>
	<rect x="-13" y="226.5" fill="#231F20" width="673" height="0.2"/>
</g>
<g>
	<rect x="-13" y="253.2" fill="#231F20" width="673" height="0.2"/>
</g>
<g>
	<rect x="-13" y="279.8" fill="#231F20" width="673" height="0.2"/>
</g>
<g>
	<rect x="-13" y="306.5" fill="#231F20" width="673" height="0.2"/>
</g>
<g>
	<rect x="-13" y="333.1" fill="#231F20" width="673" height="0.2"/>
</g>
<g>
	<rect x="-13" y="359.8" fill="#231F20" width="673" height="0.2"/>
</g>
<g>
	<rect x="-13" y="386.4" fill="#231F20" width="673" height="0.2"/>
</g>
<g>
	<rect x="-13" y="6.7" fill="#231F20" width="673" height="0.2"/>
</g>
<g>
	<rect x="-13" y="33.3" fill="#231F20" width="673" height="0.2"/>
</g>
<g>
	<rect x="-13" y="60" fill="#231F20" width="673" height="0.2"/>
</g>
<g>
	<rect x="-13" y="86.6" fill="#231F20" width="673" height="0.2"/>
</g>
<g>
	<rect x="-13" y="113.3" fill="#231F20" width="673" height="0.2"/>
</g>
<g>
	<rect x="-13" y="139.9" fill="#231F20" width="673" height="0.2"/>
</g>
<g>
	<rect x="-13" y="166.6" fill="#231F20" width="673" height="0.2"/>
</g>
<g>
	<rect x="-13" y="193.2" fill="#231F20" width="673" height="0.2"/>
</g>
<g>
	<rect x="-13" y="219.9" fill="#231F20" width="673" height="0.2"/>
</g>
<g>
	<rect x="-13" y="246.5" fill="#231F20" width="673" height="0.2"/>
</g>
<g>
	<rect x="-13" y="273.2" fill="#231F20" width="673" height="0.2"/>
</g>
<g>
	<rect x="-13" y="299.8" fill="#231F20" width="673" height="0.2"/>
</g>
<g>
	<rect x="-13" y="326.5" fill="#231F20" width="673" height="0.2"/>
</g>
<g>
	<rect x="-13" y="353.1" fill="#231F20" width="673" height="0.2"/>
</g>
<g>
	<rect x="-13" y="379.8" fill="#231F20" width="673" height="0.2"/>
</g>
<g>
	<rect x="-13" y="20" fill="#231F20" width="673" height="0.2"/>
</g>
<g>
	<rect x="-13" y="46.6" fill="#231F20" width="673" height="0.2"/>
</g>
<g>
	<rect x="-13" y="73.3" fill="#231F20" width="673" height="0.2"/>
</g>
<g>
	<rect x="-13" y="99.9" fill="#231F20" width="673" height="0.2"/>
</g>
<g>
	<rect x="-13" y="126.6" fill="#231F20" width="673" height="0.2"/>
</g>
<g>
	<rect x="-13" y="153.2" fill="#231F20" width="673" height="0.2"/>
</g>
<g>
	<rect x="-13" y="179.9" fill="#231F20" width="673" height="0.2"/>
</g>
<g>
	<rect x="-13" y="206.5" fill="#231F20" width="673" height="0.2"/>
</g>
<g>
	<rect x="-13" y="233.2" fill="#231F20" width="673" height="0.2"/>
</g>
<g>
	<rect x="-13" y="259.8" fill="#231F20" width="673" height="0.2"/>
</g>
<g>
	<rect x="-13" y="286.5" fill="#231F20" width="673" height="0.2"/>
</g>
<g>
	<rect x="-13" y="313.1" fill="#231F20" width="673" height="0.2"/>
</g>
<g>
	<rect x="-13" y="339.8" fill="#231F20" width="673" height="0.2"/>
</g>
<g>
	<rect x="-13" y="366.4" fill="#231F20" width="673" height="0.2"/>
</g>
<g>
	<rect x="-13" y="393.1" fill="#231F20" width="673" height="0.2"/>
</g>
<g>
	<rect x="-13" y="3.3" fill="#231F20" width="673" height="0.2"/>
</g>
<g>
	<rect x="-13" y="30" fill="#231F20" width="673" height="0.2"/>
</g>
<g>
	<rect x="-13" y="56.6" fill="#231F20" width="673" height="0.2"/>
</g>
<g>
	<rect x="-13" y="83.3" fill="#231F20" width="673" height="0.2"/>
</g>
<g>
	<rect x="-13" y="109.9" fill="#231F20" width="673" height="0.2"/>
</g>
<g>
	<rect x="-13" y="136.6" fill="#231F20" width="673" height="0.2"/>
</g>
<g>
	<rect x="-13" y="163.2" fill="#231F20" width="673" height="0.2"/>
</g>
<g>
	<rect x="-13" y="189.9" fill="#231F20" width="673" height="0.2"/>
</g>
<g>
	<rect x="-13" y="216.5" fill="#231F20" width="673" height="0.2"/>
</g>
<g>
	<rect x="-13" y="243.2" fill="#231F20" width="673" height="0.2"/>
</g>
<g>
	<rect x="-13" y="269.8" fill="#231F20" width="673" height="0.2"/>
</g>
<g>
	<rect x="-13" y="296.5" fill="#231F20" width="673" height="0.2"/>
</g>
<g>
	<rect x="-13" y="323.1" fill="#231F20" width="673" height="0.2"/>
</g>
<g>
	<rect x="-13" y="349.8" fill="#231F20" width="673" height="0.2"/>
</g>
<g>
	<rect x="-13" y="376.4" fill="#231F20" width="673" height="0.2"/>
</g>
<g>
	<rect x="-13" y="16.7" fill="#231F20" width="673" height="0.2"/>
</g>
<g>
	<rect x="-13" y="43.3" fill="#231F20" width="673" height="0.2"/>
</g>
<g>
	<rect x="-13" y="70" fill="#231F20" width="673" height="0.2"/>
</g>
<g>
	<rect x="-13" y="96.6" fill="#231F20" width="673" height="0.2"/>
</g>
<g>
	<rect x="-13" y="123.3" fill="#231F20" width="673" height="0.2"/>
</g>
<g>
	<rect x="-13" y="149.9" fill="#231F20" width="673" height="0.2"/>
</g>
<g>
	<rect x="-13" y="176.6" fill="#231F20" width="673" height="0.2"/>
</g>
<g>
	<rect x="-13" y="203.2" fill="#231F20" width="673" height="0.2"/>
</g>
<g>
	<rect x="-13" y="229.9" fill="#231F20" width="673" height="0.2"/>
</g>
<g>
	<rect x="-13" y="256.5" fill="#231F20" width="673" height="0.2"/>
</g>
<g>
	<rect x="-13" y="283.2" fill="#231F20" width="673" height="0.2"/>
</g>
<g>
	<rect x="-13" y="309.8" fill="#231F20" width="673" height="0.2"/>
</g>
<g>
	<rect x="-13" y="336.5" fill="#231F20" width="673" height="0.2"/>
</g>
<g>
	<rect x="-13" y="363.1" fill="#231F20" width="673" height="0.2"/>
</g>
<g>
	<rect x="-13" y="389.8" fill="#231F20" width="673" height="0.2"/>
</g>
<g>
	<rect x="-13" y="10" fill="#231F20" width="673" height="0.2"/>
</g>
<g>
	<rect x="-13" y="36.6" fill="#231F20" width="673" height="0.2"/>
</g>
<g>
	<rect x="-13" y="63.3" fill="#231F20" width="673" height="0.2"/>
</g>
<g>
	<rect x="-13" y="89.9" fill="#231F20" width="673" height="0.2"/>
</g>
<g>
	<rect x="-13" y="116.6" fill="#231F20" width="673" height="0.2"/>
</g>
<g>
	<rect x="-13" y="143.2" fill="#231F20" width="673" height="0.2"/>
</g>
<g>
	<rect x="-13" y="169.9" fill="#231F20" width="673" height="0.2"/>
</g>
<g>
	<rect x="-13" y="196.5" fill="#231F20" width="673" height="0.2"/>
</g>
<g>
	<rect x="-13" y="223.2" fill="#231F20" width="673" height="0.2"/>
</g>
<g>
	<rect x="-13" y="249.8" fill="#231F20" width="673" height="0.2"/>
</g>
<g>
	<rect x="-13" y="276.5" fill="#231F20" width="673" height="0.2"/>
</g>
<g>
	<rect x="-13" y="303.1" fill="#231F20" width="673" height="0.2"/>
</g>
<g>
	<rect x="-13" y="329.8" fill="#231F20" width="673" height="0.2"/>
</g>
<g>
	<rect x="-13" y="356.4" fill="#231F20" width="673" height="0.2"/>
</g>
<g>
	<rect x="-13" y="383.1" fill="#231F20" width="673" height="0.2"/>
</g>
<g>
	<rect x="-13" y="23.3" fill="#231F20" width="673" height="0.2"/>
</g>
<g>
	<rect x="-13" y="50" fill="#231F20" width="673" height="0.2"/>
</g>
<g>
	<rect x="-13" y="76.6" fill="#231F20" width="673" height="0.2"/>
</g>
<g>
	<rect x="-13" y="103.3" fill="#231F20" width="673" height="0.2"/>
</g>
<g>
	<rect x="-13" y="129.9" fill="#231F20" width="673" height="0.2"/>
</g>
<g>
	<rect x="-13" y="156.6" fill="#231F20" width="673" height="0.2"/>
</g>
<g>
	<rect x="-13" y="183.2" fill="#231F20" width="673" height="0.2"/>
</g>
<g>
	<rect x="-13" y="209.9" fill="#231F20" width="673" height="0.2"/>
</g>
<g>
	<rect x="-13" y="236.5" fill="#231F20" width="673" height="0.2"/>
</g>
<g>
	<rect x="-13" y="263.2" fill="#231F20" width="673" height="0.2"/>
</g>
<g>
	<rect x="-13" y="289.8" fill="#231F20" width="673" height="0.2"/>
</g>
<g>
	<rect x="-13" y="316.5" fill="#231F20" width="673" height="0.2"/>
</g>
<g>
	<rect x="-13" y="343.1" fill="#231F20" width="673" height="0.2"/>
</g>
<g>
	<rect x="-13" y="369.8" fill="#231F20" width="673" height="0.2"/>
</g>
<g>
	<rect x="-13" y="396.4" fill="#231F20" width="673" height="0.2"/>
</g>
</svg>
