<?xml version="1.0" encoding="utf-8"?>
<!-- Generator: Adobe Illustrator 18.0.0, SVG Export Plug-In . SVG Version: 6.00 Build 0)  -->
<!DOCTYPE svg PUBLIC "-//W3C//DTD SVG 1.1//EN" "http://www.w3.org/Graphics/SVG/1.1/DTD/svg11.dtd">
<svg version="1.1" id="Layer_1" xmlns="http://www.w3.org/2000/svg" xmlns:xlink="http://www.w3.org/1999/xlink" x="0px" y="0px"
	 viewBox="0 0 80 185" enable-background="new 0 0 80 185" xml:space="preserve">
<g>
	<rect x="-3.1" y="0" width="410" height="0.2"/>
</g>
<g>
	<rect x="-3.1" y="143" width="410" height="0.2"/>
</g>
<g>
	<rect x="-3.1" y="71.5" width="410" height="0.2"/>
</g>
<g>
	<rect x="-3.1" y="35.8" width="410" height="0.2"/>
</g>
<g>
	<rect x="-3.1" y="178.8" width="410" height="0.2"/>
</g>
<g>
	<rect x="-3.1" y="107.3" width="410" height="0.2"/>
</g>
<g>
	<rect x="-3.1" y="17.9" width="410" height="0.2"/>
</g>
<g>
	<rect x="-3.1" y="160.9" width="410" height="0.2"/>
</g>
<g>
	<rect x="-3.1" y="89.4" width="410" height="0.2"/>
</g>
<g>
	<rect x="-3.1" y="53.6" width="410" height="0.2"/>
</g>
<g>
	<rect x="-3.1" y="125.2" width="410" height="0.2"/>
</g>
<g>
	<rect x="-3.1" y="6" width="410" height="0.2"/>
</g>
<g>
	<rect x="-3.1" y="149" width="410" height="0.2"/>
</g>
<g>
	<rect x="-3.1" y="77.5" width="410" height="0.2"/>
</g>
<g>
	<rect x="-3.1" y="41.7" width="410" height="0.2"/>
</g>
<g opacity="0">
	<rect x="-2.9" y="184.8" width="410" height="0.2"/>
</g>
<g>
	<rect x="-3.1" y="113.2" width="410" height="0.2"/>
</g>
<g>
	<rect x="-3.1" y="23.8" width="410" height="0.2"/>
</g>
<g>
	<rect x="-3.1" y="166.9" width="410" height="0.2"/>
</g>
<g>
	<rect x="-3.1" y="95.4" width="410" height="0.2"/>
</g>
<g>
	<rect x="-3.1" y="59.6" width="410" height="0.2"/>
</g>
<g>
	<rect x="-3.1" y="131.1" width="410" height="0.2"/>
</g>
<g>
	<rect x="-3.1" y="11.9" width="410" height="0.2"/>
</g>
<g>
	<rect x="-3.1" y="155" width="410" height="0.2"/>
</g>
<g>
	<rect x="-3.1" y="83.4" width="410" height="0.2"/>
</g>
<g>
	<rect x="-3.1" y="47.7" width="410" height="0.2"/>
</g>
<g>
	<rect x="-3.1" y="119.2" width="410" height="0.2"/>
</g>
<g>
	<rect x="-3.1" y="29.8" width="410" height="0.2"/>
</g>
<g>
	<rect x="-3.1" y="172.8" width="410" height="0.2"/>
</g>
<g>
	<rect x="-3.1" y="101.3" width="410" height="0.2"/>
</g>
<g>
	<rect x="-3.1" y="65.6" width="410" height="0.2"/>
</g>
<g>
	<rect x="-3.1" y="137.1" width="410" height="0.2"/>
</g>
</svg>
