<?xml version="1.0" encoding="utf-8"?>
<!-- Generator: Adobe Illustrator 18.0.0, SVG Export Plug-In . SVG Version: 6.00 Build 0)  -->
<!DOCTYPE svg PUBLIC "-//W3C//DTD SVG 1.1//EN" "http://www.w3.org/Graphics/SVG/1.1/DTD/svg11.dtd">
<svg version="1.1" id="Layer_1" xmlns="http://www.w3.org/2000/svg" xmlns:xlink="http://www.w3.org/1999/xlink" x="0px" y="0px"
	 viewBox="0 0 80 400" enable-background="new 0 0 80 400" xml:space="preserve">
<g>
	<rect x="-10.5" y="0" width="410" height="0.2"/>
</g>
<g opacity="0">
	<rect x="-10.5" y="399.8" width="410" height="0.2"/>
</g>
<g>
	<rect x="-10.5" y="266.5" width="410" height="0.2"/>
</g>
<g>
	<rect x="-10.5" y="141.6" width="410" height="0.2"/>
</g>
<g>
	<rect x="-10.5" y="66.6" width="410" height="0.2"/>
</g>
<g>
	<rect x="-10.5" y="333.1" width="410" height="0.2"/>
</g>
<g>
	<rect x="-10.5" y="166.6" width="410" height="0.2"/>
</g>
<g>
	<rect x="-10.5" y="33.3" width="410" height="0.2"/>
</g>
<g>
	<rect x="-10.5" y="299.8" width="410" height="0.2"/>
</g>
<g>
	<rect x="-10.5" y="208.2" width="410" height="0.2"/>
</g>
<g>
	<rect x="-10.5" y="99.9" width="410" height="0.2"/>
</g>
<g>
	<rect x="-10.5" y="366.4" width="410" height="0.2"/>
</g>
<g>
	<rect x="-10.5" y="233.2" width="410" height="0.2"/>
</g>
<g>
	<rect x="-10.5" y="16.7" width="410" height="0.2"/>
</g>
<g>
	<rect x="-10.5" y="283.2" width="410" height="0.2"/>
</g>
<g>
	<rect x="-10.5" y="174.9" width="410" height="0.2"/>
</g>
<g>
	<rect x="-10.5" y="83.3" width="410" height="0.2"/>
</g>
<g>
	<rect x="-10.5" y="349.8" width="410" height="0.2"/>
</g>
<g>
	<rect x="-10.5" y="199.9" width="410" height="0.2"/>
</g>
<g>
	<rect x="-10.5" y="50" width="410" height="0.2"/>
</g>
<g>
	<rect x="-10.5" y="316.5" width="410" height="0.2"/>
</g>
<g>
	<rect x="-10.5" y="133.2" width="410" height="0.2"/>
</g>
<g>
	<rect x="-10.5" y="116.6" width="410" height="0.2"/>
</g>
<g>
	<rect x="-10.5" y="383.1" width="410" height="0.2"/>
</g>
<g>
	<rect x="-10.5" y="249.8" width="410" height="0.2"/>
</g>
<g>
	<rect x="-10.5" y="8.3" width="410" height="0.2"/>
</g>
<g>
	<rect x="-10.5" y="274.8" width="410" height="0.2"/>
</g>
<g>
	<rect x="-10.5" y="158.2" width="410" height="0.2"/>
</g>
<g>
	<rect x="-10.5" y="75" width="410" height="0.2"/>
</g>
<g>
	<rect x="-10.5" y="341.5" width="410" height="0.2"/>
</g>
<g>
	<rect x="-10.5" y="183.2" width="410" height="0.2"/>
</g>
<g>
	<rect x="-10.5" y="41.6" width="410" height="0.2"/>
</g>
<g>
	<rect x="-10.5" y="308.1" width="410" height="0.2"/>
</g>
<g>
	<rect x="-10.5" y="224.9" width="410" height="0.2"/>
</g>
<g>
	<rect x="-10.5" y="108.3" width="410" height="0.2"/>
</g>
<g>
	<rect x="-10.5" y="374.8" width="410" height="0.2"/>
</g>
<g>
	<rect x="-10.5" y="241.5" width="410" height="0.2"/>
</g>
<g>
	<rect x="-10.5" y="25" width="410" height="0.2"/>
</g>
<g>
	<rect x="-10.5" y="291.5" width="410" height="0.2"/>
</g>
<g>
	<rect x="-10.5" y="191.5" width="410" height="0.2"/>
</g>
<g>
	<rect x="-10.5" y="91.6" width="410" height="0.2"/>
</g>
<g>
	<rect x="-10.5" y="358.1" width="410" height="0.2"/>
</g>
<g>
	<rect x="-10.5" y="216.5" width="410" height="0.2"/>
</g>
<g>
	<rect x="-10.5" y="58.3" width="410" height="0.2"/>
</g>
<g>
	<rect x="-10.5" y="324.8" width="410" height="0.2"/>
</g>
<g>
	<rect x="-10.5" y="149.9" width="410" height="0.2"/>
</g>
<g>
	<rect x="-10.5" y="124.9" width="410" height="0.2"/>
</g>
<g>
	<rect x="-10.5" y="391.4" width="410" height="0.2"/>
</g>
<g>
	<rect x="-10.5" y="258.2" width="410" height="0.2"/>
</g>
</svg>
