<?xml version="1.0" encoding="utf-8"?>
<!-- Generator: Adobe Illustrator 18.0.0, SVG Export Plug-In . SVG Version: 6.00 Build 0)  -->
<!DOCTYPE svg PUBLIC "-//W3C//DTD SVG 1.1//EN" "http://www.w3.org/Graphics/SVG/1.1/DTD/svg11.dtd">
<svg version="1.1" id="Layer_1" xmlns="http://www.w3.org/2000/svg" xmlns:xlink="http://www.w3.org/1999/xlink" x="0px" y="0px"
	 viewBox="0 0 300 1200" enable-background="new 0 0 300 1200" xml:space="preserve">
<g>
	<rect x="-40.5" y="0" fill="#010101" width="410" height="0.2"/>
</g>
<g>
	<rect x="-40.5" y="266.5" fill="#010101" width="410" height="0.2"/>
</g>
<g>
	<rect x="-40.5" y="133.2" fill="#010101" width="410" height="0.2"/>
</g>
<g>
	<rect x="-40.5" y="66.6" fill="#010101" width="410" height="0.2"/>
</g>
<g>
	<rect x="-40.5" y="333.1" fill="#010101" width="410" height="0.2"/>
</g>
<g>
	<rect x="-40.5" y="166.6" fill="#010101" width="410" height="0.2"/>
</g>
<g>
	<rect x="-40.5" y="33.3" fill="#010101" width="410" height="0.2"/>
</g>
<g>
	<rect x="-40.5" y="299.8" fill="#010101" width="410" height="0.2"/>
</g>
<g>
	<rect x="-40.5" y="199.9" fill="#010101" width="410" height="0.2"/>
</g>
<g>
	<rect x="-40.5" y="99.9" fill="#010101" width="410" height="0.2"/>
</g>
<g>
	<rect x="-40.5" y="366.4" fill="#010101" width="410" height="0.2"/>
</g>
<g>
	<rect x="-40.5" y="233.2" fill="#010101" width="410" height="0.2"/>
</g>
<g>
	<g>
		<rect x="-35.3" y="800" fill="#010101" width="410" height="0.2"/>
	</g>
	<g>
		<rect x="-35.3" y="1066.5" fill="#010101" width="410" height="0.2"/>
	</g>
	<g>
		<rect x="-35.3" y="949.9" fill="#010101" width="410" height="0.2"/>
	</g>
	<g>
		<rect x="-35.3" y="866.6" fill="#010101" width="410" height="0.2"/>
	</g>
	<g>
		<rect x="-35.3" y="1133.1" fill="#010101" width="410" height="0.2"/>
	</g>
	<g>
		<rect x="-35.3" y="966.6" fill="#010101" width="410" height="0.2"/>
	</g>
	<g>
		<rect x="-35.3" y="833.3" fill="#010101" width="410" height="0.2"/>
	</g>
	<g>
		<rect x="-35.3" y="1099.8" fill="#010101" width="410" height="0.2"/>
	</g>
	<g>
		<rect x="-35.3" y="1016.5" fill="#010101" width="410" height="0.2"/>
	</g>
	<g>
		<rect x="-35.3" y="899.9" fill="#010101" width="410" height="0.2"/>
	</g>
	<g>
		<rect x="-35.3" y="1166.4" fill="#010101" width="410" height="0.2"/>
	</g>
	<g>
		<rect x="-35.3" y="1033.2" fill="#010101" width="410" height="0.2"/>
	</g>
	<g>
		<rect x="-35.3" y="816.7" fill="#010101" width="410" height="0.2"/>
	</g>
	<g>
		<rect x="-35.3" y="1083.2" fill="#010101" width="410" height="0.2"/>
	</g>
	<g>
		<rect x="-35.3" y="983.2" fill="#010101" width="410" height="0.2"/>
	</g>
	<g>
		<rect x="-35.3" y="883.3" fill="#010101" width="410" height="0.2"/>
	</g>
	<g>
		<rect x="-35.3" y="1149.8" fill="#010101" width="410" height="0.2"/>
	</g>
	<g>
		<rect x="-35.3" y="999.9" fill="#010101" width="410" height="0.2"/>
	</g>
	<g>
		<rect x="-35.3" y="850" fill="#010101" width="410" height="0.2"/>
	</g>
	<g>
		<rect x="-35.3" y="1116.5" fill="#010101" width="410" height="0.2"/>
	</g>
	<g>
		<rect x="-35.3" y="933.2" fill="#010101" width="410" height="0.2"/>
	</g>
	<g>
		<rect x="-35.3" y="916.6" fill="#010101" width="410" height="0.2"/>
	</g>
	<g>
		<rect x="-35.3" y="1183.1" fill="#010101" width="410" height="0.2"/>
	</g>
	<g>
		<rect x="-35.3" y="1049.8" fill="#010101" width="410" height="0.2"/>
	</g>
</g>
<g>
	<g>
		<rect x="-35.1" y="400" fill="#010101" width="410" height="0.2"/>
	</g>
	<g>
		<rect x="-35.1" y="666.5" fill="#010101" width="410" height="0.2"/>
	</g>
	<g>
		<rect x="-35.1" y="541.6" fill="#010101" width="410" height="0.2"/>
	</g>
	<g>
		<rect x="-35.1" y="466.6" fill="#010101" width="410" height="0.2"/>
	</g>
	<g>
		<rect x="-35.1" y="733.1" fill="#010101" width="410" height="0.2"/>
	</g>
	<g>
		<rect x="-35.1" y="566.6" fill="#010101" width="410" height="0.2"/>
	</g>
	<g>
		<rect x="-35.1" y="433.3" fill="#010101" width="410" height="0.2"/>
	</g>
	<g>
		<rect x="-35.1" y="699.8" fill="#010101" width="410" height="0.2"/>
	</g>
	<g>
		<rect x="-35.1" y="608.2" fill="#010101" width="410" height="0.2"/>
	</g>
	<g>
		<rect x="-35.1" y="499.9" fill="#010101" width="410" height="0.2"/>
	</g>
	<g>
		<rect x="-35.1" y="766.4" fill="#010101" width="410" height="0.2"/>
	</g>
	<g>
		<rect x="-35.1" y="633.2" fill="#010101" width="410" height="0.2"/>
	</g>
	<g>
		<rect x="-35.1" y="416.7" fill="#010101" width="410" height="0.2"/>
	</g>
	<g>
		<rect x="-35.1" y="683.2" fill="#010101" width="410" height="0.2"/>
	</g>
	<g>
		<rect x="-35.1" y="574.9" fill="#010101" width="410" height="0.2"/>
	</g>
	<g>
		<rect x="-35.1" y="483.3" fill="#010101" width="410" height="0.2"/>
	</g>
	<g>
		<rect x="-35.1" y="749.8" fill="#010101" width="410" height="0.2"/>
	</g>
	<g>
		<rect x="-35.1" y="599.9" fill="#010101" width="410" height="0.2"/>
	</g>
	<g>
		<rect x="-35.1" y="450" fill="#010101" width="410" height="0.2"/>
	</g>
	<g>
		<rect x="-35.1" y="716.5" fill="#010101" width="410" height="0.2"/>
	</g>
	<g>
		<rect x="-35.1" y="533.2" fill="#010101" width="410" height="0.2"/>
	</g>
	<g>
		<rect x="-35.1" y="516.6" fill="#010101" width="410" height="0.2"/>
	</g>
	<g>
		<rect x="-35.1" y="783.1" fill="#010101" width="410" height="0.2"/>
	</g>
	<g>
		<rect x="-35.1" y="649.8" fill="#010101" width="410" height="0.2"/>
	</g>
	<g>
		<rect x="-35.1" y="408.3" fill="#010101" width="410" height="0.2"/>
	</g>
	<g>
		<rect x="-35.1" y="674.8" fill="#010101" width="410" height="0.2"/>
	</g>
	<g>
		<rect x="-35.1" y="558.2" fill="#010101" width="410" height="0.2"/>
	</g>
	<g>
		<rect x="-35.1" y="475" fill="#010101" width="410" height="0.2"/>
	</g>
	<g>
		<rect x="-35.1" y="741.5" fill="#010101" width="410" height="0.2"/>
	</g>
	<g>
		<rect x="-35.1" y="583.2" fill="#010101" width="410" height="0.2"/>
	</g>
	<g>
		<rect x="-35.1" y="441.6" fill="#010101" width="410" height="0.2"/>
	</g>
	<g>
		<rect x="-35.1" y="708.1" fill="#010101" width="410" height="0.2"/>
	</g>
	<g>
		<rect x="-35.1" y="624.9" fill="#010101" width="410" height="0.2"/>
	</g>
	<g>
		<rect x="-35.1" y="508.3" fill="#010101" width="410" height="0.2"/>
	</g>
	<g>
		<rect x="-35.1" y="774.8" fill="#010101" width="410" height="0.2"/>
	</g>
	<g>
		<rect x="-35.1" y="641.5" fill="#010101" width="410" height="0.2"/>
	</g>
	<g>
		<rect x="-35.1" y="425" fill="#010101" width="410" height="0.2"/>
	</g>
	<g>
		<rect x="-35.1" y="691.5" fill="#010101" width="410" height="0.2"/>
	</g>
	<g>
		<rect x="-35.1" y="591.5" fill="#010101" width="410" height="0.2"/>
	</g>
	<g>
		<rect x="-35.1" y="491.6" fill="#010101" width="410" height="0.2"/>
	</g>
	<g>
		<rect x="-35.1" y="758.1" fill="#010101" width="410" height="0.2"/>
	</g>
	<g>
		<rect x="-35.1" y="616.5" fill="#010101" width="410" height="0.2"/>
	</g>
	<g>
		<rect x="-35.1" y="458.3" fill="#010101" width="410" height="0.2"/>
	</g>
	<g>
		<rect x="-35.1" y="724.8" fill="#010101" width="410" height="0.2"/>
	</g>
	<g>
		<rect x="-35.1" y="549.9" fill="#010101" width="410" height="0.2"/>
	</g>
	<g>
		<rect x="-35.1" y="524.9" fill="#010101" width="410" height="0.2"/>
	</g>
	<g>
		<rect x="-35.1" y="791.4" fill="#010101" width="410" height="0.2"/>
	</g>
	<g>
		<rect x="-35.1" y="658.2" fill="#010101" width="410" height="0.2"/>
	</g>
</g>
</svg>
