<?xml version="1.0" encoding="utf-8"?>
<!-- Generator: Adobe Illustrator 18.0.0, SVG Export Plug-In . SVG Version: 6.00 Build 0)  -->
<!DOCTYPE svg PUBLIC "-//W3C//DTD SVG 1.1//EN" "http://www.w3.org/Graphics/SVG/1.1/DTD/svg11.dtd">
<svg version="1.1" id="Layer_1" xmlns="http://www.w3.org/2000/svg" xmlns:xlink="http://www.w3.org/1999/xlink" x="0px" y="0px"
	 viewBox="0 0 150 180" enable-background="new 0 0 150 180" xml:space="preserve">
<g>
	<g>
		<rect x="-131.9" y="0" fill="#010101" stroke="#000000" stroke-width="0.1" stroke-miterlimit="10" width="410" height="0.2"/>
	</g>
	<g>
		
			<rect x="-131.9" y="399.8" fill="#010101" stroke="#000000" stroke-width="0.1" stroke-miterlimit="10" width="410" height="0.2"/>
	</g>
	<g>
		
			<rect x="-131.9" y="299.8" fill="#010101" stroke="#000000" stroke-width="0.1" stroke-miterlimit="10" width="410" height="0.2"/>
	</g>
	<g>
		
			<rect x="-131.9" y="133.2" fill="#010101" stroke="#000000" stroke-width="0.1" stroke-miterlimit="10" width="410" height="0.2"/>
	</g>
	<g>
		<rect x="-131.9" y="66.6" fill="#010101" stroke="#000000" stroke-width="0.1" stroke-miterlimit="10" width="410" height="0.2"/>
	</g>
	<g>
		
			<rect x="-131.9" y="333.1" fill="#010101" stroke="#000000" stroke-width="0.1" stroke-miterlimit="10" width="410" height="0.2"/>
	</g>
	<g>
		
			<rect x="-131.9" y="199.9" fill="#010101" stroke="#000000" stroke-width="0.1" stroke-miterlimit="10" width="410" height="0.2"/>
	</g>
	<g>
		<rect x="-131.9" y="33.3" fill="#010101" stroke="#000000" stroke-width="0.1" stroke-miterlimit="10" width="410" height="0.2"/>
	</g>
	<g>
		
			<rect x="-131.9" y="294.3" fill="#010101" stroke="#000000" stroke-width="0.1" stroke-miterlimit="10" width="410" height="0.2"/>
	</g>
	<g>
		
			<rect x="-131.9" y="166.6" fill="#010101" stroke="#000000" stroke-width="0.1" stroke-miterlimit="10" width="410" height="0.2"/>
	</g>
	<g>
		<rect x="-131.9" y="99.9" fill="#010101" stroke="#000000" stroke-width="0.1" stroke-miterlimit="10" width="410" height="0.2"/>
	</g>
	<g>
		
			<rect x="-131.9" y="366.4" fill="#010101" stroke="#000000" stroke-width="0.1" stroke-miterlimit="10" width="410" height="0.2"/>
	</g>
	<g>
		
			<rect x="-131.9" y="233.2" fill="#010101" stroke="#000000" stroke-width="0.1" stroke-miterlimit="10" width="410" height="0.2"/>
	</g>
	<g>
		<rect x="-131.9" y="16.7" fill="#010101" stroke="#000000" stroke-width="0.1" stroke-miterlimit="10" width="410" height="0.2"/>
	</g>
	<g>
		
			<rect x="-131.9" y="260.9" fill="#010101" stroke="#000000" stroke-width="0.1" stroke-miterlimit="10" width="410" height="0.2"/>
	</g>
	<g>
		
			<rect x="-131.9" y="149.9" fill="#010101" stroke="#000000" stroke-width="0.1" stroke-miterlimit="10" width="410" height="0.2"/>
	</g>
	<g>
		<rect x="-131.9" y="83.3" fill="#010101" stroke="#000000" stroke-width="0.1" stroke-miterlimit="10" width="410" height="0.2"/>
	</g>
	<g>
		
			<rect x="-131.9" y="349.8" fill="#010101" stroke="#000000" stroke-width="0.1" stroke-miterlimit="10" width="410" height="0.2"/>
	</g>
	<g>
		
			<rect x="-131.9" y="216.5" fill="#010101" stroke="#000000" stroke-width="0.1" stroke-miterlimit="10" width="410" height="0.2"/>
	</g>
	<g>
		<rect x="-131.9" y="50" fill="#010101" stroke="#000000" stroke-width="0.1" stroke-miterlimit="10" width="410" height="0.2"/>
	</g>
	<g>
		
			<rect x="-131.9" y="316.5" fill="#010101" stroke="#000000" stroke-width="0.1" stroke-miterlimit="10" width="410" height="0.2"/>
	</g>
	<g>
		
			<rect x="-131.9" y="183.2" fill="#010101" stroke="#000000" stroke-width="0.1" stroke-miterlimit="10" width="410" height="0.2"/>
	</g>
	<g>
		
			<rect x="-131.9" y="116.6" fill="#010101" stroke="#000000" stroke-width="0.1" stroke-miterlimit="10" width="410" height="0.2"/>
	</g>
	<g>
		
			<rect x="-131.9" y="383.1" fill="#010101" stroke="#000000" stroke-width="0.1" stroke-miterlimit="10" width="410" height="0.2"/>
	</g>
	<g>
		
			<rect x="-131.9" y="266.5" fill="#010101" stroke="#000000" stroke-width="0.1" stroke-miterlimit="10" width="410" height="0.2"/>
	</g>
	<g>
		<rect x="-131.9" y="5.6" fill="#010101" stroke="#000000" stroke-width="0.1" stroke-miterlimit="10" width="410" height="0.2"/>
	</g>
	<g>
		
			<rect x="-131.9" y="238.7" fill="#010101" stroke="#000000" stroke-width="0.1" stroke-miterlimit="10" width="410" height="0.2"/>
	</g>
	<g>
		
			<rect x="-131.9" y="138.8" fill="#010101" stroke="#000000" stroke-width="0.1" stroke-miterlimit="10" width="410" height="0.2"/>
	</g>
	<g>
		<rect x="-131.9" y="72.2" fill="#010101" stroke="#000000" stroke-width="0.1" stroke-miterlimit="10" width="410" height="0.2"/>
	</g>
	<g>
		
			<rect x="-131.9" y="338.7" fill="#010101" stroke="#000000" stroke-width="0.1" stroke-miterlimit="10" width="410" height="0.2"/>
	</g>
	<g>
		
			<rect x="-131.9" y="205.4" fill="#010101" stroke="#000000" stroke-width="0.1" stroke-miterlimit="10" width="410" height="0.2"/>
	</g>
	<g>
		<rect x="-131.9" y="38.9" fill="#010101" stroke="#000000" stroke-width="0.1" stroke-miterlimit="10" width="410" height="0.2"/>
	</g>
	<g>
		
			<rect x="-131.9" y="305.4" fill="#010101" stroke="#000000" stroke-width="0.1" stroke-miterlimit="10" width="410" height="0.2"/>
	</g>
	<g>
		
			<rect x="-131.9" y="172.1" fill="#010101" stroke="#000000" stroke-width="0.1" stroke-miterlimit="10" width="410" height="0.2"/>
	</g>
	<g>
		
			<rect x="-131.9" y="105.5" fill="#010101" stroke="#000000" stroke-width="0.1" stroke-miterlimit="10" width="410" height="0.2"/>
	</g>
	<g>
		<rect x="-131.9" y="372" fill="#010101" stroke="#000000" stroke-width="0.1" stroke-miterlimit="10" width="410" height="0.2"/>
	</g>
	<g>
		
			<rect x="-131.9" y="244.3" fill="#010101" stroke="#000000" stroke-width="0.1" stroke-miterlimit="10" width="410" height="0.2"/>
	</g>
	<g>
		<rect x="-131.9" y="22.2" fill="#010101" stroke="#000000" stroke-width="0.1" stroke-miterlimit="10" width="410" height="0.2"/>
	</g>
	<g>
		
			<rect x="-131.9" y="272.1" fill="#010101" stroke="#000000" stroke-width="0.1" stroke-miterlimit="10" width="410" height="0.2"/>
	</g>
	<g>
		
			<rect x="-131.9" y="155.5" fill="#010101" stroke="#000000" stroke-width="0.1" stroke-miterlimit="10" width="410" height="0.2"/>
	</g>
	<g>
		<rect x="-131.9" y="88.8" fill="#010101" stroke="#000000" stroke-width="0.1" stroke-miterlimit="10" width="410" height="0.2"/>
	</g>
	<g>
		
			<rect x="-131.9" y="355.3" fill="#010101" stroke="#000000" stroke-width="0.1" stroke-miterlimit="10" width="410" height="0.2"/>
	</g>
	<g>
		
			<rect x="-131.9" y="222.1" fill="#010101" stroke="#000000" stroke-width="0.1" stroke-miterlimit="10" width="410" height="0.2"/>
	</g>
	<g>
		<rect x="-131.9" y="55.5" fill="#010101" stroke="#000000" stroke-width="0.1" stroke-miterlimit="10" width="410" height="0.2"/>
	</g>
	<g>
		<rect x="-131.9" y="322" fill="#010101" stroke="#000000" stroke-width="0.1" stroke-miterlimit="10" width="410" height="0.2"/>
	</g>
	<g>
		
			<rect x="-131.9" y="188.8" fill="#010101" stroke="#000000" stroke-width="0.1" stroke-miterlimit="10" width="410" height="0.2"/>
	</g>
	<g>
		
			<rect x="-131.9" y="122.1" fill="#010101" stroke="#000000" stroke-width="0.1" stroke-miterlimit="10" width="410" height="0.2"/>
	</g>
	<g>
		
			<rect x="-131.9" y="388.6" fill="#010101" stroke="#000000" stroke-width="0.1" stroke-miterlimit="10" width="410" height="0.2"/>
	</g>
	<g>
		
			<rect x="-131.9" y="277.6" fill="#010101" stroke="#000000" stroke-width="0.1" stroke-miterlimit="10" width="410" height="0.2"/>
	</g>
	<g>
		<rect x="-131.9" y="11.1" fill="#010101" stroke="#000000" stroke-width="0.1" stroke-miterlimit="10" width="410" height="0.2"/>
	</g>
	<g>
		
			<rect x="-131.9" y="249.8" fill="#010101" stroke="#000000" stroke-width="0.1" stroke-miterlimit="10" width="410" height="0.2"/>
	</g>
	<g>
		
			<rect x="-131.9" y="144.4" fill="#010101" stroke="#000000" stroke-width="0.1" stroke-miterlimit="10" width="410" height="0.2"/>
	</g>
	<g>
		<rect x="-131.9" y="77.7" fill="#010101" stroke="#000000" stroke-width="0.1" stroke-miterlimit="10" width="410" height="0.2"/>
	</g>
	<g>
		
			<rect x="-131.9" y="344.2" fill="#010101" stroke="#000000" stroke-width="0.1" stroke-miterlimit="10" width="410" height="0.2"/>
	</g>
	<g>
		<rect x="-131.9" y="211" fill="#010101" stroke="#000000" stroke-width="0.1" stroke-miterlimit="10" width="410" height="0.2"/>
	</g>
	<g>
		<rect x="-131.9" y="44.4" fill="#010101" stroke="#000000" stroke-width="0.1" stroke-miterlimit="10" width="410" height="0.2"/>
	</g>
	<g>
		
			<rect x="-131.9" y="310.9" fill="#010101" stroke="#000000" stroke-width="0.1" stroke-miterlimit="10" width="410" height="0.2"/>
	</g>
	<g>
		
			<rect x="-131.9" y="177.7" fill="#010101" stroke="#000000" stroke-width="0.1" stroke-miterlimit="10" width="410" height="0.2"/>
	</g>
	<g>
		<rect x="-131.9" y="111" fill="#010101" stroke="#000000" stroke-width="0.1" stroke-miterlimit="10" width="410" height="0.2"/>
	</g>
	<g>
		
			<rect x="-131.9" y="377.5" fill="#010101" stroke="#000000" stroke-width="0.1" stroke-miterlimit="10" width="410" height="0.2"/>
	</g>
	<g>
		
			<rect x="-131.9" y="255.4" fill="#010101" stroke="#000000" stroke-width="0.1" stroke-miterlimit="10" width="410" height="0.2"/>
	</g>
	<g>
		<rect x="-131.9" y="27.8" fill="#010101" stroke="#000000" stroke-width="0.1" stroke-miterlimit="10" width="410" height="0.2"/>
	</g>
	<g>
		
			<rect x="-131.9" y="283.2" fill="#010101" stroke="#000000" stroke-width="0.1" stroke-miterlimit="10" width="410" height="0.2"/>
	</g>
	<g>
		<rect x="-131.9" y="161" fill="#010101" stroke="#000000" stroke-width="0.1" stroke-miterlimit="10" width="410" height="0.2"/>
	</g>
	<g>
		<rect x="-131.9" y="94.4" fill="#010101" stroke="#000000" stroke-width="0.1" stroke-miterlimit="10" width="410" height="0.2"/>
	</g>
	<g>
		
			<rect x="-131.9" y="360.9" fill="#010101" stroke="#000000" stroke-width="0.1" stroke-miterlimit="10" width="410" height="0.2"/>
	</g>
	<g>
		
			<rect x="-131.9" y="227.6" fill="#010101" stroke="#000000" stroke-width="0.1" stroke-miterlimit="10" width="410" height="0.2"/>
	</g>
	<g>
		<rect x="-131.9" y="61.1" fill="#010101" stroke="#000000" stroke-width="0.1" stroke-miterlimit="10" width="410" height="0.2"/>
	</g>
	<g>
		
			<rect x="-131.9" y="327.6" fill="#010101" stroke="#000000" stroke-width="0.1" stroke-miterlimit="10" width="410" height="0.2"/>
	</g>
	<g>
		
			<rect x="-131.9" y="194.3" fill="#010101" stroke="#000000" stroke-width="0.1" stroke-miterlimit="10" width="410" height="0.2"/>
	</g>
	<g>
		
			<rect x="-131.9" y="127.7" fill="#010101" stroke="#000000" stroke-width="0.1" stroke-miterlimit="10" width="410" height="0.2"/>
	</g>
	<g>
		
			<rect x="-131.9" y="394.2" fill="#010101" stroke="#000000" stroke-width="0.1" stroke-miterlimit="10" width="410" height="0.2"/>
	</g>
	<g>
		
			<rect x="-131.9" y="288.7" fill="#010101" stroke="#000000" stroke-width="0.1" stroke-miterlimit="10" width="410" height="0.2"/>
	</g>
</g>
</svg>
