<?xml version="1.0" encoding="utf-8"?>
<!-- Generator: Adobe Illustrator 18.0.0, SVG Export Plug-In . SVG Version: 6.00 Build 0)  -->
<!DOCTYPE svg PUBLIC "-//W3C//DTD SVG 1.1//EN" "http://www.w3.org/Graphics/SVG/1.1/DTD/svg11.dtd">
<svg version="1.1" id="Layer_1" xmlns="http://www.w3.org/2000/svg" xmlns:xlink="http://www.w3.org/1999/xlink" x="0px" y="0px"
	 viewBox="0 0 330 400" enable-background="new 0 0 330 400" xml:space="preserve">
<g>
	<rect x="-39.3" y="0" fill="#010101" width="410" height="0.2"/>
</g>
<g>
	<rect x="-39.3" y="266.5" fill="#010101" width="410" height="0.2"/>
</g>
<g>
	<rect x="-39.3" y="141.6" fill="#010101" width="410" height="0.2"/>
</g>
<g>
	<rect x="-39.3" y="66.6" fill="#010101" width="410" height="0.2"/>
</g>
<g>
	<rect x="-39.3" y="333.1" fill="#010101" width="410" height="0.2"/>
</g>
<g>
	<rect x="-39.3" y="166.6" fill="#010101" width="410" height="0.2"/>
</g>
<g>
	<rect x="-39.3" y="33.3" fill="#010101" width="410" height="0.2"/>
</g>
<g>
	<rect x="-39.3" y="299.8" fill="#010101" width="410" height="0.2"/>
</g>
<g>
	<rect x="-39.3" y="208.2" fill="#010101" width="410" height="0.2"/>
</g>
<g>
	<rect x="-39.3" y="99.9" fill="#010101" width="410" height="0.2"/>
</g>
<g>
	<rect x="-39.3" y="366.4" fill="#010101" width="410" height="0.2"/>
</g>
<g>
	<rect x="-39.3" y="233.2" fill="#010101" width="410" height="0.2"/>
</g>
<g>
	<rect x="-39.3" y="16.7" fill="#010101" width="410" height="0.2"/>
</g>
<g>
	<rect x="-39.3" y="283.2" fill="#010101" width="410" height="0.2"/>
</g>
<g>
	<rect x="-39.3" y="174.9" fill="#010101" width="410" height="0.2"/>
</g>
<g>
	<rect x="-39.3" y="83.3" fill="#010101" width="410" height="0.2"/>
</g>
<g>
	<rect x="-39.3" y="349.8" fill="#010101" width="410" height="0.2"/>
</g>
<g>
	<rect x="-39.3" y="199.9" fill="#010101" width="410" height="0.2"/>
</g>
<g>
	<rect x="-39.3" y="50" fill="#010101" width="410" height="0.2"/>
</g>
<g>
	<rect x="-39.3" y="316.5" fill="#010101" width="410" height="0.2"/>
</g>
<g>
	<rect x="-39.3" y="133.3" fill="#010101" width="410" height="0.2"/>
</g>
<g>
	<rect x="-39.3" y="116.6" fill="#010101" width="410" height="0.2"/>
</g>
<g>
	<rect x="-39.3" y="383.1" fill="#010101" width="410" height="0.2"/>
</g>
<g>
	<rect x="-39.3" y="249.8" fill="#010101" width="410" height="0.2"/>
</g>
<g>
	<rect x="-39.3" y="8.3" fill="#010101" width="410" height="0.2"/>
</g>
<g>
	<rect x="-39.3" y="274.8" fill="#010101" width="410" height="0.2"/>
</g>
<g>
	<rect x="-39.3" y="158.2" fill="#010101" width="410" height="0.2"/>
</g>
<g>
	<rect x="-39.3" y="75" fill="#010101" width="410" height="0.2"/>
</g>
<g>
	<rect x="-39.3" y="341.5" fill="#010101" width="410" height="0.2"/>
</g>
<g>
	<rect x="-39.3" y="183.2" fill="#010101" width="410" height="0.2"/>
</g>
<g>
	<rect x="-39.3" y="41.6" fill="#010101" width="410" height="0.2"/>
</g>
<g>
	<rect x="-39.3" y="308.1" fill="#010101" width="410" height="0.2"/>
</g>
<g>
	<rect x="-39.3" y="224.9" fill="#010101" width="410" height="0.2"/>
</g>
<g>
	<rect x="-39.3" y="108.3" fill="#010101" width="410" height="0.2"/>
</g>
<g>
	<rect x="-39.3" y="374.8" fill="#010101" width="410" height="0.2"/>
</g>
<g>
	<rect x="-39.3" y="241.5" fill="#010101" width="410" height="0.2"/>
</g>
<g>
	<rect x="-39.3" y="25" fill="#010101" width="410" height="0.2"/>
</g>
<g>
	<rect x="-39.3" y="291.5" fill="#010101" width="410" height="0.2"/>
</g>
<g>
	<rect x="-39.3" y="191.5" fill="#010101" width="410" height="0.2"/>
</g>
<g>
	<rect x="-39.3" y="91.6" fill="#010101" width="410" height="0.2"/>
</g>
<g>
	<rect x="-39.3" y="358.1" fill="#010101" width="410" height="0.2"/>
</g>
<g>
	<rect x="-39.3" y="216.5" fill="#010101" width="410" height="0.2"/>
</g>
<g>
	<rect x="-39.3" y="58.3" fill="#010101" width="410" height="0.2"/>
</g>
<g>
	<rect x="-39.3" y="324.8" fill="#010101" width="410" height="0.2"/>
</g>
<g>
	<rect x="-39.3" y="149.9" fill="#010101" width="410" height="0.2"/>
</g>
<g>
	<rect x="-39.3" y="124.9" fill="#010101" width="410" height="0.2"/>
</g>
<g>
	<rect x="-39.3" y="391.4" fill="#010101" width="410" height="0.2"/>
</g>
<g>
	<rect x="-39.3" y="258.2" fill="#010101" width="410" height="0.2"/>
</g>
</svg>
