<?xml version="1.0" encoding="utf-8"?>
<!-- Generator: Adobe Illustrator 18.0.0, SVG Export Plug-In . SVG Version: 6.00 Build 0)  -->
<!DOCTYPE svg PUBLIC "-//W3C//DTD SVG 1.1//EN" "http://www.w3.org/Graphics/SVG/1.1/DTD/svg11.dtd">
<svg version="1.1" id="Layer_1" xmlns="http://www.w3.org/2000/svg" xmlns:xlink="http://www.w3.org/1999/xlink" x="0px" y="0px"
	 viewBox="0 0 150 1200" enable-background="new 0 0 150 1200" xml:space="preserve">
<g>
	<g>
		<rect x="-508" y="0" fill="#231F20" width="410" height="0.2"/>
	</g>
	<g>
		<rect x="-508" y="399.8" fill="none" stroke="#231F20" stroke-width="0.1" stroke-miterlimit="10" width="410" height="0.2"/>
	</g>
	<g>
		<rect x="-508" y="266.5" fill="none" stroke="#231F20" stroke-width="0.1" stroke-miterlimit="10" width="410" height="0.2"/>
	</g>
	<g>
		<rect x="-508" y="133.2" fill="none" stroke="#231F20" stroke-width="0.1" stroke-miterlimit="10" width="410" height="0.2"/>
	</g>
	<g>
		<rect x="-508" y="66.6" fill="none" stroke="#231F20" stroke-width="0.1" stroke-miterlimit="10" width="410" height="0.2"/>
	</g>
	<g>
		<rect x="-508" y="333.1" fill="none" stroke="#231F20" stroke-width="0.1" stroke-miterlimit="10" width="410" height="0.2"/>
	</g>
	<g>
		<rect x="-508" y="166.6" fill="none" stroke="#231F20" stroke-width="0.1" stroke-miterlimit="10" width="410" height="0.2"/>
	</g>
	<g>
		<rect x="-508" y="33.3" fill="none" stroke="#231F20" stroke-width="0.1" stroke-miterlimit="10" width="410" height="0.2"/>
	</g>
	<g>
		<rect x="-508" y="299.8" fill="none" stroke="#231F20" stroke-width="0.1" stroke-miterlimit="10" width="410" height="0.2"/>
	</g>
	<g>
		<rect x="-508" y="199.9" fill="none" stroke="#231F20" stroke-width="0.1" stroke-miterlimit="10" width="410" height="0.2"/>
	</g>
	<g>
		<rect x="-508" y="99.9" fill="none" stroke="#231F20" stroke-width="0.1" stroke-miterlimit="10" width="410" height="0.2"/>
	</g>
	<g>
		<rect x="-508" y="366.4" fill="#231F20" width="410" height="0.2"/>
	</g>
	<g>
		<rect x="-508" y="233.2" fill="none" stroke="#231F20" stroke-width="0.1" stroke-miterlimit="10" width="410" height="0.2"/>
	</g>
	<g>
		<rect x="-515.2" y="799.5" fill="none" stroke="#231F20" stroke-width="0.1" stroke-miterlimit="10" width="410" height="0.2"/>
	</g>
	<g>
		<rect x="-515.2" y="666.2" fill="none" stroke="#231F20" stroke-width="0.1" stroke-miterlimit="10" width="410" height="0.2"/>
	</g>
	<g>
		<rect x="-515.2" y="541.3" fill="none" stroke="#231F20" stroke-width="0.1" stroke-miterlimit="10" width="410" height="0.2"/>
	</g>
	<g>
		<rect x="-515.2" y="466.4" fill="none" stroke="#231F20" stroke-width="0.1" stroke-miterlimit="10" width="410" height="0.2"/>
	</g>
	<g>
		<rect x="-515.2" y="732.9" fill="none" stroke="#231F20" stroke-width="0.1" stroke-miterlimit="10" width="410" height="0.2"/>
	</g>
	<g>
		<rect x="-515.2" y="566.3" fill="none" stroke="#231F20" stroke-width="0.1" stroke-miterlimit="10" width="410" height="0.2"/>
	</g>
	<g>
		<rect x="-515.2" y="433.1" fill="none" stroke="#231F20" stroke-width="0.1" stroke-miterlimit="10" width="410" height="0.2"/>
	</g>
	<g>
		<rect x="-515.2" y="699.6" fill="none" stroke="#231F20" stroke-width="0.1" stroke-miterlimit="10" width="410" height="0.2"/>
	</g>
	<g>
		<rect x="-515.2" y="608" fill="none" stroke="#231F20" stroke-width="0.1" stroke-miterlimit="10" width="410" height="0.2"/>
	</g>
	<g>
		<rect x="-515.2" y="499.7" fill="none" stroke="#231F20" stroke-width="0.1" stroke-miterlimit="10" width="410" height="0.2"/>
	</g>
	<g>
		<rect x="-515.2" y="766.2" fill="none" stroke="#231F20" stroke-width="0.1" stroke-miterlimit="10" width="410" height="0.2"/>
	</g>
	<g>
		<rect x="-515.2" y="632.9" fill="none" stroke="#231F20" stroke-width="0.1" stroke-miterlimit="10" width="410" height="0.2"/>
	</g>
	<g>
		<rect x="-515.2" y="416.4" fill="none" stroke="#231F20" stroke-width="0.1" stroke-miterlimit="10" width="410" height="0.2"/>
	</g>
	<g>
		<rect x="-515.2" y="682.9" fill="none" stroke="#231F20" stroke-width="0.1" stroke-miterlimit="10" width="410" height="0.2"/>
	</g>
	<g>
		<rect x="-515.2" y="574.6" fill="none" stroke="#231F20" stroke-width="0.1" stroke-miterlimit="10" width="410" height="0.2"/>
	</g>
	<g>
		<rect x="-515.2" y="483" fill="none" stroke="#231F20" stroke-width="0.1" stroke-miterlimit="10" width="410" height="0.2"/>
	</g>
	<g>
		<rect x="-515.2" y="749.5" fill="none" stroke="#231F20" stroke-width="0.1" stroke-miterlimit="10" width="410" height="0.2"/>
	</g>
	<g>
		<rect x="-515.2" y="599.6" fill="none" stroke="#231F20" stroke-width="0.1" stroke-miterlimit="10" width="410" height="0.2"/>
	</g>
	<g>
		<rect x="-515.2" y="449.7" fill="none" stroke="#231F20" stroke-width="0.1" stroke-miterlimit="10" width="410" height="0.2"/>
	</g>
	<g>
		<rect x="-515.2" y="716.2" fill="none" stroke="#231F20" stroke-width="0.1" stroke-miterlimit="10" width="410" height="0.2"/>
	</g>
	<g>
		<rect x="-515.2" y="533" fill="none" stroke="#231F20" stroke-width="0.1" stroke-miterlimit="10" width="410" height="0.2"/>
	</g>
	<g>
		<rect x="-515.2" y="516.3" fill="none" stroke="#231F20" stroke-width="0.1" stroke-miterlimit="10" width="410" height="0.2"/>
	</g>
	<g>
		<rect x="-515.2" y="782.8" fill="none" stroke="#231F20" stroke-width="0.1" stroke-miterlimit="10" width="410" height="0.2"/>
	</g>
	<g>
		<rect x="-515.2" y="649.6" fill="none" stroke="#231F20" stroke-width="0.1" stroke-miterlimit="10" width="410" height="0.2"/>
	</g>
	<g>
		<rect x="-515.2" y="408.1" fill="none" stroke="#231F20" stroke-width="0.1" stroke-miterlimit="10" width="410" height="0.2"/>
	</g>
	<g>
		<rect x="-515.2" y="674.6" fill="none" stroke="#231F20" stroke-width="0.1" stroke-miterlimit="10" width="410" height="0.2"/>
	</g>
	<g>
		<rect x="-515.2" y="558" fill="none" stroke="#231F20" stroke-width="0.1" stroke-miterlimit="10" width="410" height="0.2"/>
	</g>
	<g>
		<rect x="-515.2" y="474.7" fill="none" stroke="#231F20" stroke-width="0.1" stroke-miterlimit="10" width="410" height="0.2"/>
	</g>
	<g>
		<rect x="-515.2" y="741.2" fill="none" stroke="#231F20" stroke-width="0.1" stroke-miterlimit="10" width="410" height="0.2"/>
	</g>
	<g>
		<rect x="-515.2" y="583" fill="none" stroke="#231F20" stroke-width="0.1" stroke-miterlimit="10" width="410" height="0.2"/>
	</g>
	<g>
		<rect x="-515.2" y="441.4" fill="none" stroke="#231F20" stroke-width="0.1" stroke-miterlimit="10" width="410" height="0.2"/>
	</g>
	<g>
		<rect x="-515.2" y="707.9" fill="none" stroke="#231F20" stroke-width="0.1" stroke-miterlimit="10" width="410" height="0.2"/>
	</g>
	<g>
		<rect x="-515.2" y="624.6" fill="none" stroke="#231F20" stroke-width="0.1" stroke-miterlimit="10" width="410" height="0.2"/>
	</g>
	<g>
		<rect x="-515.2" y="508" fill="none" stroke="#231F20" stroke-width="0.1" stroke-miterlimit="10" width="410" height="0.2"/>
	</g>
	<g>
		<rect x="-515.2" y="774.5" fill="none" stroke="#231F20" stroke-width="0.1" stroke-miterlimit="10" width="410" height="0.2"/>
	</g>
	<g>
		<rect x="-515.2" y="641.3" fill="none" stroke="#231F20" stroke-width="0.1" stroke-miterlimit="10" width="410" height="0.2"/>
	</g>
	<g>
		<rect x="-515.2" y="424.7" fill="none" stroke="#231F20" stroke-width="0.1" stroke-miterlimit="10" width="410" height="0.2"/>
	</g>
	<g>
		<rect x="-515.2" y="691.2" fill="none" stroke="#231F20" stroke-width="0.1" stroke-miterlimit="10" width="410" height="0.2"/>
	</g>
	<g>
		<rect x="-515.2" y="591.3" fill="none" stroke="#231F20" stroke-width="0.1" stroke-miterlimit="10" width="410" height="0.2"/>
	</g>
	<g>
		<rect x="-515.2" y="491.4" fill="none" stroke="#231F20" stroke-width="0.1" stroke-miterlimit="10" width="410" height="0.2"/>
	</g>
	<g>
		<rect x="-515.2" y="757.9" fill="none" stroke="#231F20" stroke-width="0.1" stroke-miterlimit="10" width="410" height="0.2"/>
	</g>
	<g>
		<rect x="-515.2" y="616.3" fill="none" stroke="#231F20" stroke-width="0.1" stroke-miterlimit="10" width="410" height="0.2"/>
	</g>
	<g>
		<rect x="-515.2" y="458" fill="none" stroke="#231F20" stroke-width="0.1" stroke-miterlimit="10" width="410" height="0.2"/>
	</g>
	<g>
		<rect x="-515.2" y="724.5" fill="none" stroke="#231F20" stroke-width="0.1" stroke-miterlimit="10" width="410" height="0.2"/>
	</g>
	<g>
		<rect x="-515.2" y="549.7" fill="none" stroke="#231F20" stroke-width="0.1" stroke-miterlimit="10" width="410" height="0.2"/>
	</g>
	<g>
		<rect x="-515.2" y="524.7" fill="none" stroke="#231F20" stroke-width="0.1" stroke-miterlimit="10" width="410" height="0.2"/>
	</g>
	<g>
		<rect x="-515.2" y="791.2" fill="none" stroke="#231F20" stroke-width="0.1" stroke-miterlimit="10" width="410" height="0.2"/>
	</g>
	<g>
		<rect x="-515.2" y="657.9" fill="none" stroke="#231F20" stroke-width="0.1" stroke-miterlimit="10" width="410" height="0.2"/>
	</g>
	<g>
		<rect x="-513.3" y="1199.2" fill="none" stroke="#231F20" stroke-width="0.1" stroke-miterlimit="10" width="410" height="0.2"/>
	</g>
	<g>
		<rect x="-513.3" y="1066" fill="none" stroke="#231F20" stroke-width="0.1" stroke-miterlimit="10" width="410" height="0.2"/>
	</g>
	<g>
		<rect x="-513.3" y="949.4" fill="none" stroke="#231F20" stroke-width="0.1" stroke-miterlimit="10" width="410" height="0.2"/>
	</g>
	<g>
		<rect x="-513.3" y="866.1" fill="none" stroke="#231F20" stroke-width="0.1" stroke-miterlimit="10" width="410" height="0.2"/>
	</g>
	<g>
		<rect x="-513.3" y="1132.6" fill="none" stroke="#231F20" stroke-width="0.1" stroke-miterlimit="10" width="410" height="0.2"/>
	</g>
	<g>
		<rect x="-513.3" y="966.1" fill="none" stroke="#231F20" stroke-width="0.1" stroke-miterlimit="10" width="410" height="0.2"/>
	</g>
	<g>
		<rect x="-513.3" y="832.8" fill="none" stroke="#231F20" stroke-width="0.1" stroke-miterlimit="10" width="410" height="0.2"/>
	</g>
	<g>
		<rect x="-513.3" y="1099.3" fill="none" stroke="#231F20" stroke-width="0.1" stroke-miterlimit="10" width="410" height="0.2"/>
	</g>
	<g>
		<rect x="-513.3" y="1016" fill="none" stroke="#231F20" stroke-width="0.1" stroke-miterlimit="10" width="410" height="0.2"/>
	</g>
	<g>
		<rect x="-513.3" y="899.4" fill="none" stroke="#231F20" stroke-width="0.1" stroke-miterlimit="10" width="410" height="0.2"/>
	</g>
	<g>
		<rect x="-513.3" y="1165.9" fill="none" stroke="#231F20" stroke-width="0.1" stroke-miterlimit="10" width="410" height="0.2"/>
	</g>
	<g>
		<rect x="-513.3" y="1032.7" fill="none" stroke="#231F20" stroke-width="0.1" stroke-miterlimit="10" width="410" height="0.2"/>
	</g>
	<g>
		<rect x="-513.3" y="816.2" fill="none" stroke="#231F20" stroke-width="0.1" stroke-miterlimit="10" width="410" height="0.2"/>
	</g>
	<g>
		<rect x="-513.3" y="1082.7" fill="none" stroke="#231F20" stroke-width="0.1" stroke-miterlimit="10" width="410" height="0.2"/>
	</g>
	<g>
		<rect x="-513.3" y="982.7" fill="none" stroke="#231F20" stroke-width="0.1" stroke-miterlimit="10" width="410" height="0.2"/>
	</g>
	<g>
		<rect x="-513.3" y="882.8" fill="none" stroke="#231F20" stroke-width="0.1" stroke-miterlimit="10" width="410" height="0.2"/>
	</g>
	<g>
		<rect x="-513.3" y="1149.3" fill="none" stroke="#231F20" stroke-width="0.1" stroke-miterlimit="10" width="410" height="0.2"/>
	</g>
	<g>
		<rect x="-513.3" y="999.4" fill="none" stroke="#231F20" stroke-width="0.1" stroke-miterlimit="10" width="410" height="0.2"/>
	</g>
	<g>
		<rect x="-513.3" y="849.5" fill="none" stroke="#231F20" stroke-width="0.1" stroke-miterlimit="10" width="410" height="0.2"/>
	</g>
	<g>
		<rect x="-513.3" y="1116" fill="none" stroke="#231F20" stroke-width="0.1" stroke-miterlimit="10" width="410" height="0.2"/>
	</g>
	<g>
		<rect x="-513.3" y="932.8" fill="none" stroke="#231F20" stroke-width="0.1" stroke-miterlimit="10" width="410" height="0.2"/>
	</g>
	<g>
		<rect x="-513.3" y="916.1" fill="none" stroke="#231F20" stroke-width="0.1" stroke-miterlimit="10" width="410" height="0.2"/>
	</g>
	<g>
		<rect x="-513.3" y="1182.6" fill="none" stroke="#231F20" stroke-width="0.1" stroke-miterlimit="10" width="410" height="0.2"/>
	</g>
	<g>
		<rect x="-513.3" y="1049.3" fill="none" stroke="#231F20" stroke-width="0.1" stroke-miterlimit="10" width="410" height="0.2"/>
	</g>
</g>
<line fill="none" stroke="#231F20" stroke-width="0.25" stroke-miterlimit="10" x1="-10.8" y1="0.1" x2="168.1" y2="0.1"/>
<line fill="none" stroke="#231F20" stroke-width="0.25" stroke-miterlimit="10" x1="-10.8" y1="33.4" x2="168.1" y2="33.4"/>
<line fill="none" stroke="#231F20" stroke-width="0.25" stroke-miterlimit="10" x1="-10.8" y1="66.8" x2="168.1" y2="66.8"/>
<line fill="none" stroke="#231F20" stroke-width="0.25" stroke-miterlimit="10" x1="-10.8" y1="100.1" x2="168.1" y2="100.1"/>
<line fill="none" stroke="#231F20" stroke-width="0.25" stroke-miterlimit="10" x1="-10.8" y1="133.4" x2="168.1" y2="133.4"/>
<line fill="none" stroke="#231F20" stroke-width="0.25" stroke-miterlimit="10" x1="-10.8" y1="166.7" x2="168.1" y2="166.7"/>
<line fill="none" stroke="#231F20" stroke-width="0.25" stroke-miterlimit="10" x1="-10.8" y1="200" x2="168.1" y2="200"/>
<line fill="none" stroke="#231F20" stroke-width="0.25" stroke-miterlimit="10" x1="-10.8" y1="233.3" x2="168.1" y2="233.3"/>
<line fill="none" stroke="#231F20" stroke-width="0.25" stroke-miterlimit="10" x1="-10.8" y1="266.6" x2="168.1" y2="266.6"/>
<line fill="none" stroke="#231F20" stroke-width="0.25" stroke-miterlimit="10" x1="-10.8" y1="299.9" x2="168.1" y2="299.9"/>
<line fill="none" stroke="#231F20" stroke-width="0.25" stroke-miterlimit="10" x1="-10.8" y1="333.2" x2="168.1" y2="333.2"/>
<line fill="none" stroke="#231F20" stroke-width="0.25" stroke-miterlimit="10" x1="-10.8" y1="366.6" x2="168.1" y2="366.6"/>
<line fill="none" stroke="#231F20" stroke-width="0.25" stroke-miterlimit="10" x1="-10.8" y1="399.9" x2="168.1" y2="399.9"/>
<line fill="none" stroke="#231F20" stroke-width="0.25" stroke-miterlimit="10" x1="-10.8" y1="816.3" x2="168.1" y2="816.3"/>
<line fill="none" stroke="#231F20" stroke-width="0.25" stroke-miterlimit="10" x1="-10.8" y1="849.6" x2="168.1" y2="849.6"/>
<line fill="none" stroke="#231F20" stroke-width="0.25" stroke-miterlimit="10" x1="-10.8" y1="882.9" x2="168.1" y2="882.9"/>
<line fill="none" stroke="#231F20" stroke-width="0.25" stroke-miterlimit="10" x1="-10.8" y1="916.3" x2="168.1" y2="916.3"/>
<line fill="none" stroke="#231F20" stroke-width="0.25" stroke-miterlimit="10" x1="-10.8" y1="949.6" x2="168.1" y2="949.6"/>
<line fill="none" stroke="#231F20" stroke-width="0.25" stroke-miterlimit="10" x1="-10.8" y1="982.9" x2="168.1" y2="982.9"/>
<line fill="none" stroke="#231F20" stroke-width="0.25" stroke-miterlimit="10" x1="-10.8" y1="1016.2" x2="168.1" y2="1016.2"/>
<line fill="none" stroke="#231F20" stroke-width="0.25" stroke-miterlimit="10" x1="-10.8" y1="1049.5" x2="168.1" y2="1049.5"/>
<line fill="none" stroke="#231F20" stroke-width="0.25" stroke-miterlimit="10" x1="-10.8" y1="1082.9" x2="168.1" y2="1082.9"/>
<line fill="none" stroke="#231F20" stroke-width="0.25" stroke-miterlimit="10" x1="-10.8" y1="1116.2" x2="168.1" y2="1116.2"/>
<line fill="none" stroke="#231F20" stroke-width="0.25" stroke-miterlimit="10" x1="-10.8" y1="1149.5" x2="168.1" y2="1149.5"/>
<line fill="none" stroke="#231F20" stroke-width="0.25" stroke-miterlimit="10" x1="-10.8" y1="1182.8" x2="168.1" y2="1182.8"/>
<line fill="none" stroke="#231F20" stroke-width="0.25" stroke-miterlimit="10" x1="-10.8" y1="832.9" x2="168.1" y2="832.9"/>
<line fill="none" stroke="#231F20" stroke-width="0.25" stroke-miterlimit="10" x1="-10.8" y1="866.3" x2="168.1" y2="866.3"/>
<line fill="none" stroke="#231F20" stroke-width="0.25" stroke-miterlimit="10" x1="-10.8" y1="899.6" x2="168.1" y2="899.6"/>
<line fill="none" stroke="#231F20" stroke-width="0.25" stroke-miterlimit="10" x1="-10.8" y1="932.9" x2="168.1" y2="932.9"/>
<line fill="none" stroke="#231F20" stroke-width="0.25" stroke-miterlimit="10" x1="-10.8" y1="966.2" x2="168.1" y2="966.2"/>
<line fill="none" stroke="#231F20" stroke-width="0.25" stroke-miterlimit="10" x1="-10.8" y1="999.6" x2="168.1" y2="999.6"/>
<line fill="none" stroke="#231F20" stroke-width="0.25" stroke-miterlimit="10" x1="-10.8" y1="1032.9" x2="168.1" y2="1032.9"/>
<line fill="none" stroke="#231F20" stroke-width="0.25" stroke-miterlimit="10" x1="-10.8" y1="1066.2" x2="168.1" y2="1066.2"/>
<line fill="none" stroke="#231F20" stroke-width="0.25" stroke-miterlimit="10" x1="-10.8" y1="1099.5" x2="168.1" y2="1099.5"/>
<line fill="none" stroke="#231F20" stroke-width="0.25" stroke-miterlimit="10" x1="-10.8" y1="1132.9" x2="168.1" y2="1132.9"/>
<line fill="none" stroke="#231F20" stroke-width="0.25" stroke-miterlimit="10" x1="-10.8" y1="1166.2" x2="168.1" y2="1166.2"/>
<line fill="none" stroke="#231F20" stroke-width="0.25" stroke-miterlimit="10" x1="-10.8" y1="1199.5" x2="168.1" y2="1199.5"/>
<line fill="none" stroke="#231F20" stroke-width="0.25" stroke-miterlimit="10" x1="-10.8" y1="416.5" x2="168.1" y2="416.5"/>
<line fill="none" stroke="#231F20" stroke-width="0.25" stroke-miterlimit="10" x1="-10.8" y1="449.8" x2="168.1" y2="449.8"/>
<line fill="none" stroke="#231F20" stroke-width="0.25" stroke-miterlimit="10" x1="-10.8" y1="483.1" x2="168.1" y2="483.1"/>
<line fill="none" stroke="#231F20" stroke-width="0.25" stroke-miterlimit="10" x1="-10.8" y1="516.4" x2="168.1" y2="516.4"/>
<line fill="none" stroke="#231F20" stroke-width="0.25" stroke-miterlimit="10" x1="-10.8" y1="549.7" x2="168.1" y2="549.7"/>
<line fill="none" stroke="#231F20" stroke-width="0.25" stroke-miterlimit="10" x1="-10.8" y1="583" x2="168.1" y2="583"/>
<line fill="none" stroke="#231F20" stroke-width="0.25" stroke-miterlimit="10" x1="-10.8" y1="616.3" x2="168.1" y2="616.3"/>
<line fill="none" stroke="#231F20" stroke-width="0.25" stroke-miterlimit="10" x1="-10.8" y1="649.6" x2="168.1" y2="649.6"/>
<line fill="none" stroke="#231F20" stroke-width="0.25" stroke-miterlimit="10" x1="-10.8" y1="682.9" x2="168.1" y2="682.9"/>
<line fill="none" stroke="#231F20" stroke-width="0.25" stroke-miterlimit="10" x1="-10.8" y1="716.2" x2="168.1" y2="716.2"/>
<line fill="none" stroke="#231F20" stroke-width="0.25" stroke-miterlimit="10" x1="-10.8" y1="749.6" x2="168.1" y2="749.6"/>
<line fill="none" stroke="#231F20" stroke-width="0.25" stroke-miterlimit="10" x1="-10.8" y1="782.9" x2="168.1" y2="782.9"/>
<line fill="none" stroke="#231F20" stroke-width="0.25" stroke-miterlimit="10" x1="-10.8" y1="408.2" x2="168.1" y2="408.2"/>
<line fill="none" stroke="#231F20" stroke-width="0.25" stroke-miterlimit="10" x1="-10.8" y1="441.5" x2="168.1" y2="441.5"/>
<line fill="none" stroke="#231F20" stroke-width="0.25" stroke-miterlimit="10" x1="-10.8" y1="474.8" x2="168.1" y2="474.8"/>
<line fill="none" stroke="#231F20" stroke-width="0.25" stroke-miterlimit="10" x1="-10.8" y1="508.1" x2="168.1" y2="508.1"/>
<line fill="none" stroke="#231F20" stroke-width="0.25" stroke-miterlimit="10" x1="-10.8" y1="541.4" x2="168.1" y2="541.4"/>
<line fill="none" stroke="#231F20" stroke-width="0.25" stroke-miterlimit="10" x1="-10.8" y1="574.7" x2="168.1" y2="574.7"/>
<line fill="none" stroke="#231F20" stroke-width="0.25" stroke-miterlimit="10" x1="-10.8" y1="608" x2="168.1" y2="608"/>
<line fill="none" stroke="#231F20" stroke-width="0.25" stroke-miterlimit="10" x1="-10.8" y1="641.3" x2="168.1" y2="641.3"/>
<line fill="none" stroke="#231F20" stroke-width="0.25" stroke-miterlimit="10" x1="-10.8" y1="674.6" x2="168.1" y2="674.6"/>
<line fill="none" stroke="#231F20" stroke-width="0.25" stroke-miterlimit="10" x1="-10.8" y1="707.9" x2="168.1" y2="707.9"/>
<line fill="none" stroke="#231F20" stroke-width="0.25" stroke-miterlimit="10" x1="-10.8" y1="741.2" x2="168.1" y2="741.2"/>
<line fill="none" stroke="#231F20" stroke-width="0.25" stroke-miterlimit="10" x1="-10.8" y1="774.5" x2="168.1" y2="774.5"/>
<line fill="none" stroke="#231F20" stroke-width="0.25" stroke-miterlimit="10" x1="-10.8" y1="424.9" x2="168.1" y2="424.9"/>
<line fill="none" stroke="#231F20" stroke-width="0.25" stroke-miterlimit="10" x1="-10.8" y1="458.2" x2="168.1" y2="458.2"/>
<line fill="none" stroke="#231F20" stroke-width="0.25" stroke-miterlimit="10" x1="-10.8" y1="491.5" x2="168.1" y2="491.5"/>
<line fill="none" stroke="#231F20" stroke-width="0.25" stroke-miterlimit="10" x1="-10.8" y1="524.8" x2="168.1" y2="524.8"/>
<line fill="none" stroke="#231F20" stroke-width="0.25" stroke-miterlimit="10" x1="-10.8" y1="558.1" x2="168.1" y2="558.1"/>
<line fill="none" stroke="#231F20" stroke-width="0.25" stroke-miterlimit="10" x1="-10.8" y1="591.4" x2="168.1" y2="591.4"/>
<line fill="none" stroke="#231F20" stroke-width="0.25" stroke-miterlimit="10" x1="-10.8" y1="624.7" x2="168.1" y2="624.7"/>
<line fill="none" stroke="#231F20" stroke-width="0.25" stroke-miterlimit="10" x1="-10.8" y1="658" x2="168.1" y2="658"/>
<line fill="none" stroke="#231F20" stroke-width="0.25" stroke-miterlimit="10" x1="-10.8" y1="691.3" x2="168.1" y2="691.3"/>
<line fill="none" stroke="#231F20" stroke-width="0.25" stroke-miterlimit="10" x1="-10.8" y1="724.6" x2="168.1" y2="724.6"/>
<line fill="none" stroke="#231F20" stroke-width="0.25" stroke-miterlimit="10" x1="-10.8" y1="757.9" x2="168.1" y2="757.9"/>
<line fill="none" stroke="#231F20" stroke-width="0.25" stroke-miterlimit="10" x1="-10.8" y1="791.2" x2="168.1" y2="791.2"/>
<line fill="none" stroke="#231F20" stroke-width="0.25" stroke-miterlimit="10" x1="-10.8" y1="799.5" x2="168.1" y2="799.5"/>
<line fill="none" stroke="#231F20" stroke-width="0.25" stroke-miterlimit="10" x1="-10.8" y1="433.2" x2="168.1" y2="433.2"/>
<line fill="none" stroke="#231F20" stroke-width="0.25" stroke-miterlimit="10" x1="-10.8" y1="466.5" x2="168.1" y2="466.5"/>
<line fill="none" stroke="#231F20" stroke-width="0.25" stroke-miterlimit="10" x1="-10.8" y1="499.8" x2="168.1" y2="499.8"/>
<line fill="none" stroke="#231F20" stroke-width="0.25" stroke-miterlimit="10" x1="-10.8" y1="533.1" x2="168.1" y2="533.1"/>
<line fill="none" stroke="#231F20" stroke-width="0.25" stroke-miterlimit="10" x1="-10.8" y1="566.4" x2="168.1" y2="566.4"/>
<line fill="none" stroke="#231F20" stroke-width="0.25" stroke-miterlimit="10" x1="-10.8" y1="599.7" x2="168.1" y2="599.7"/>
<line fill="none" stroke="#231F20" stroke-width="0.25" stroke-miterlimit="10" x1="-10.8" y1="633" x2="168.1" y2="633"/>
<line fill="none" stroke="#231F20" stroke-width="0.25" stroke-miterlimit="10" x1="-10.8" y1="666.3" x2="168.1" y2="666.3"/>
<line fill="none" stroke="#231F20" stroke-width="0.25" stroke-miterlimit="10" x1="-10.8" y1="699.6" x2="168.1" y2="699.6"/>
<line fill="none" stroke="#231F20" stroke-width="0.25" stroke-miterlimit="10" x1="-10.8" y1="732.9" x2="168.1" y2="732.9"/>
<line fill="none" stroke="#231F20" stroke-width="0.25" stroke-miterlimit="10" x1="-10.8" y1="766.2" x2="168.1" y2="766.2"/>
</svg>
