<?xml version="1.0" encoding="utf-8"?>
<!-- Generator: Adobe Illustrator 18.0.0, SVG Export Plug-In . SVG Version: 6.00 Build 0)  -->
<!DOCTYPE svg PUBLIC "-//W3C//DTD SVG 1.1//EN" "http://www.w3.org/Graphics/SVG/1.1/DTD/svg11.dtd">
<svg version="1.1" id="Layer_1" xmlns="http://www.w3.org/2000/svg" xmlns:xlink="http://www.w3.org/1999/xlink" x="0px" y="0px"
	 viewBox="0 0 330 400" enable-background="new 0 0 330 400" xml:space="preserve">
<g>
	<rect x="-40" y="0" width="410" height="0.2"/>
</g>
<g>
	<rect x="-40" y="299.8" width="410" height="0.2"/>
</g>
<g>
	<rect x="-40" y="133.2" width="410" height="0.2"/>
</g>
<g>
	<rect x="-40" y="66.6" width="410" height="0.2"/>
</g>
<g>
	<rect x="-40" y="333.1" width="410" height="0.2"/>
</g>
<g>
	<rect x="-40" y="199.9" width="410" height="0.2"/>
</g>
<g>
	<rect x="-40" y="33.3" width="410" height="0.2"/>
</g>
<g>
	<rect x="-40" y="294.3" width="410" height="0.2"/>
</g>
<g>
	<rect x="-40" y="166.6" width="410" height="0.2"/>
</g>
<g>
	<rect x="-40" y="99.9" width="410" height="0.2"/>
</g>
<g>
	<rect x="-40" y="366.4" width="410" height="0.2"/>
</g>
<g>
	<rect x="-40" y="233.2" width="410" height="0.2"/>
</g>
<g>
	<rect x="-40" y="16.7" width="410" height="0.2"/>
</g>
<g>
	<rect x="-40" y="260.9" width="410" height="0.2"/>
</g>
<g>
	<rect x="-40" y="149.9" width="410" height="0.2"/>
</g>
<g>
	<rect x="-40" y="83.3" width="410" height="0.2"/>
</g>
<g>
	<rect x="-40" y="349.8" width="410" height="0.2"/>
</g>
<g>
	<rect x="-40" y="216.5" width="410" height="0.2"/>
</g>
<g>
	<rect x="-40" y="50" width="410" height="0.2"/>
</g>
<g>
	<rect x="-40" y="316.5" width="410" height="0.2"/>
</g>
<g>
	<rect x="-40" y="183.2" width="410" height="0.2"/>
</g>
<g>
	<rect x="-40" y="116.6" width="410" height="0.2"/>
</g>
<g>
	<rect x="-40" y="383.1" width="410" height="0.2"/>
</g>
<g>
	<rect x="-40" y="266.5" width="410" height="0.2"/>
</g>
<g>
	<rect x="-40" y="5.6" width="410" height="0.2"/>
</g>
<g>
	<rect x="-40" y="238.7" width="410" height="0.2"/>
</g>
<g>
	<rect x="-40" y="138.8" width="410" height="0.2"/>
</g>
<g>
	<rect x="-40" y="72.2" width="410" height="0.2"/>
</g>
<g>
	<rect x="-40" y="338.7" width="410" height="0.2"/>
</g>
<g>
	<rect x="-40" y="205.4" width="410" height="0.2"/>
</g>
<g>
	<rect x="-40" y="38.9" width="410" height="0.2"/>
</g>
<g>
	<rect x="-40" y="305.4" width="410" height="0.2"/>
</g>
<g>
	<rect x="-40" y="172.1" width="410" height="0.2"/>
</g>
<g>
	<rect x="-40" y="105.5" width="410" height="0.2"/>
</g>
<g>
	<rect x="-40" y="372" width="410" height="0.2"/>
</g>
<g>
	<rect x="-40" y="244.3" width="410" height="0.2"/>
</g>
<g>
	<rect x="-40" y="22.2" width="410" height="0.2"/>
</g>
<g>
	<rect x="-40" y="272.1" width="410" height="0.2"/>
</g>
<g>
	<rect x="-40" y="155.5" width="410" height="0.2"/>
</g>
<g>
	<rect x="-40" y="88.8" width="410" height="0.2"/>
</g>
<g>
	<rect x="-40" y="355.3" width="410" height="0.2"/>
</g>
<g>
	<rect x="-40" y="222.1" width="410" height="0.2"/>
</g>
<g>
	<rect x="-40" y="55.5" width="410" height="0.2"/>
</g>
<g>
	<rect x="-40" y="322" width="410" height="0.2"/>
</g>
<g>
	<rect x="-40" y="188.8" width="410" height="0.2"/>
</g>
<g>
	<rect x="-40" y="122.1" width="410" height="0.2"/>
</g>
<g>
	<rect x="-40" y="388.6" width="410" height="0.2"/>
</g>
<g>
	<rect x="-40" y="277.6" width="410" height="0.2"/>
</g>
<g>
	<rect x="-40" y="11.1" width="410" height="0.2"/>
</g>
<g>
	<rect x="-40" y="249.8" width="410" height="0.2"/>
</g>
<g>
	<rect x="-40" y="144.4" width="410" height="0.2"/>
</g>
<g>
	<rect x="-40" y="77.7" width="410" height="0.2"/>
</g>
<g>
	<rect x="-40" y="344.2" width="410" height="0.2"/>
</g>
<g>
	<rect x="-40" y="211" width="410" height="0.2"/>
</g>
<g>
	<rect x="-40" y="44.4" width="410" height="0.2"/>
</g>
<g>
	<rect x="-40" y="310.9" width="410" height="0.2"/>
</g>
<g>
	<rect x="-40" y="177.7" width="410" height="0.2"/>
</g>
<g>
	<rect x="-40" y="111" width="410" height="0.2"/>
</g>
<g>
	<rect x="-40" y="377.5" width="410" height="0.2"/>
</g>
<g>
	<rect x="-40" y="255.4" width="410" height="0.2"/>
</g>
<g>
	<rect x="-40" y="27.8" width="410" height="0.2"/>
</g>
<g>
	<rect x="-40" y="283.2" width="410" height="0.2"/>
</g>
<g>
	<rect x="-40" y="161" width="410" height="0.2"/>
</g>
<g>
	<rect x="-40" y="94.4" width="410" height="0.2"/>
</g>
<g>
	<rect x="-40" y="360.9" width="410" height="0.2"/>
</g>
<g>
	<rect x="-40" y="227.6" width="410" height="0.2"/>
</g>
<g>
	<rect x="-40" y="61.1" width="410" height="0.2"/>
</g>
<g>
	<rect x="-40" y="327.6" width="410" height="0.2"/>
</g>
<g>
	<rect x="-40" y="194.3" width="410" height="0.2"/>
</g>
<g>
	<rect x="-40" y="127.7" width="410" height="0.2"/>
</g>
<g>
	<rect x="-40" y="394.2" width="410" height="0.2"/>
</g>
<g>
	<rect x="-40" y="288.7" width="410" height="0.2"/>
</g>
</svg>
